<svg version="1.2" xmlns="http://www.w3.org/2000/svg" viewBox="0 0 906 310" width="906" height="310">
	<style>
		.s0 { fill: #eb2f50 } 
		.s1 { fill: #223353 } 
	</style>
	<g id="Layer 1">
		<g id="&lt;Group&gt;">
			<g id="&lt;Group&gt;">
				<g id="&lt;Group&gt;">
					<path id="&lt;Compound Path&gt;" fill-rule="evenodd" class="s0" d="m453.09 145.71h-29.16l-4.68 13.81h-19.93l28.28-78.16h22.04l28.28 78.16h-20.15zm-4.9-14.7l-9.68-28.61-9.58 28.61z"/>
					<path id="&lt;Compound Path&gt;" fill-rule="evenodd" class="s0" d="m513.22 99.17q4.9-2.67 11.47-2.67 7.68 0 13.91 3.9 6.24 3.89 9.86 11.13 3.61 7.24 3.61 16.81 0 9.58-3.61 16.87-3.62 7.29-9.86 11.24-6.23 3.96-13.91 3.96-6.46 0-11.42-2.68-4.95-2.66-7.73-6.9v38.3h-19.04v-91.74h19.04v8.79q2.78-4.33 7.68-7.01zm15.53 17.98q-3.95-4.06-9.74-4.06-5.68 0-9.63 4.12-3.96 4.12-3.96 11.24 0 7.13 3.96 11.25 3.95 4.12 9.63 4.12 5.67 0 9.68-4.18 4.01-4.17 4.01-11.3 0-7.12-3.95-11.19z"/>
					<path id="&lt;Compound Path&gt;" class="s0" d="m617.37 103.79q6.52 7.07 6.52 19.43v36.3h-18.93v-33.74q0-6.23-3.23-9.69-3.23-3.45-8.68-3.45-5.46 0-8.69 3.45-3.23 3.46-3.23 9.69v33.74h-19.04v-62.13h19.04v8.24q2.9-4.12 7.8-6.52 4.89-2.39 11.02-2.39 10.91 0 17.42 7.07z"/>
					<path id="&lt;Compound Path&gt;" fill-rule="evenodd" class="s0" d="m636.97 111.53q3.62-7.24 9.85-11.13 6.24-3.9 13.92-3.9 6.57 0 11.52 2.67 4.96 2.68 7.63 7.01v-8.79h19.04v62.13h-19.04v-8.8q-2.78 4.34-7.74 7.01-4.95 2.68-11.52 2.68-7.57 0-13.81-3.96-6.23-3.95-9.85-11.24-3.62-7.29-3.62-16.87 0-9.57 3.62-16.81zm38.97 5.68q-3.96-4.12-9.63-4.12-5.68 0-9.63 4.06-3.96 4.07-3.96 11.19 0 7.13 3.96 11.3 3.95 4.18 9.63 4.18 5.67 0 9.63-4.12 3.95-4.12 3.95-11.25 0-7.12-3.95-11.24z"/>
				</g>
				<g id="&lt;Group&gt;">
					<path id="&lt;Compound Path&gt;" class="s0" d="m441.02 206.31v54.27h-8.9v-23.74h-25.54v23.74h-8.9v-54.27h8.9v23.27h25.54v-23.27z"/>
					<path id="&lt;Compound Path&gt;" fill-rule="evenodd" class="s0" d="m460.38 258.51q-4.92-2.77-7.73-7.81-2.81-5.03-2.81-11.67 0-6.56 2.89-11.64 2.89-5.07 7.89-7.81 5-2.73 11.17-2.73 6.16 0 11.16 2.73 5 2.74 7.89 7.81 2.89 5.08 2.89 11.64 0 6.56-2.97 11.63-2.97 5.08-8.08 7.85-5.12 2.77-11.28 2.77-6.1 0-11.02-2.77zm17.46-6.6q3-1.64 4.88-4.92 1.87-3.28 1.87-7.96 0-4.69-1.79-7.93-1.8-3.24-4.77-4.88-2.97-1.64-6.4-1.64-3.44 0-6.37 1.64-2.92 1.64-4.64 4.88-1.72 3.24-1.72 7.93 0 6.95 3.55 10.73 3.56 3.79 8.95 3.79 3.43 0 6.44-1.64z"/>
					<path id="&lt;Compound Path&gt;" class="s0" d="m563.74 218.96q4.02 2.11 6.32 6.24 2.31 4.14 2.31 10v25.38h-8.83v-24.05q0-5.78-2.89-8.87-2.89-3.08-7.88-3.08-5 0-7.93 3.08-2.93 3.09-2.93 8.87v24.05h-8.82v-24.05q0-5.78-2.89-8.87-2.89-3.08-7.89-3.08-5 0-7.93 3.08-2.93 3.09-2.93 8.87v24.05h-8.9v-43.03h8.9v4.92q2.19-2.65 5.55-4.14 3.36-1.48 7.18-1.48 5.16 0 9.22 2.19 4.06 2.18 6.24 6.32 1.96-3.9 6.1-6.21 4.14-2.3 8.9-2.3 5.07 0 9.1 2.11z"/>
					<path id="&lt;Compound Path&gt;" fill-rule="evenodd" class="s0" d="m622.81 242.39h-32.88q0.39 5.15 3.83 8.27 3.44 3.13 8.44 3.13 7.18 0 10.15-6.02h9.6q-1.95 5.94-7.06 9.73-5.12 3.78-12.69 3.78-6.17 0-11.05-2.77-4.89-2.77-7.66-7.81-2.77-5.03-2.77-11.67 0-6.64 2.7-11.68 2.69-5.03 7.57-7.77 4.88-2.73 11.21-2.73 6.08 0 10.85 2.65 4.76 2.66 7.42 7.46 2.65 4.81 2.65 11.05 0 2.42-0.31 4.38zm-8.98-7.19q-0.08-4.92-3.51-7.89-3.44-2.96-8.51-2.96-4.61 0-7.89 2.92-3.28 2.93-3.91 7.93z"/>
					<path id="&lt;Compound Path&gt;" fill-rule="evenodd" class="s0" d="m639.52 258.51q-4.92-2.77-7.73-7.81-2.81-5.03-2.81-11.67 0-6.56 2.89-11.64 2.89-5.07 7.89-7.81 5-2.73 11.16-2.73 6.17 0 11.17 2.73 5 2.74 7.89 7.81 2.89 5.08 2.89 11.64 0 6.56-2.97 11.63-2.97 5.08-8.08 7.85-5.12 2.77-11.29 2.77-6.09 0-11.01-2.77zm17.46-6.6q3-1.64 4.88-4.92 1.87-3.28 1.87-7.96 0-4.69-1.79-7.93-1.8-3.24-4.77-4.88-2.97-1.64-6.4-1.64-3.44 0-6.37 1.64-2.93 1.64-4.64 4.88-1.72 3.24-1.72 7.93 0 6.95 3.55 10.73 3.56 3.79 8.94 3.79 3.44 0 6.45-1.64z"/>
					<path id="&lt;Compound Path&gt;" fill-rule="evenodd" class="s0" d="m696.76 218.88q3.91-2.03 8.83-2.03 5.62 0 10.27 2.77 4.65 2.78 7.3 7.77 2.65 5 2.65 11.48 0 6.48-2.65 11.6-2.65 5.11-7.3 7.96-4.65 2.85-10.27 2.85-4.92 0-8.75-1.99-3.82-1.99-6.24-4.96v26.71h-8.91v-63.49h8.91v6.33q2.26-2.97 6.16-5zm18.16 12.3q-1.83-3.24-4.84-4.92-3.01-1.68-6.44-1.68-3.36 0-6.37 1.72-3.01 1.72-4.84 5-1.84 3.28-1.83 7.73-0.01 4.45 1.83 7.77 1.83 3.32 4.84 5.03 3.01 1.72 6.37 1.72 3.43 0 6.44-1.76 3.01-1.75 4.84-5.11 1.84-3.36 1.84-7.81 0-4.45-1.84-7.69z"/>
					<path id="&lt;Compound Path&gt;" fill-rule="evenodd" class="s0" d="m734.36 227.39q2.7-4.99 7.35-7.77 4.64-2.77 10.26-2.77 5.08 0 8.87 1.99 3.78 1.99 6.05 4.96v-6.25h8.98v43.03h-8.98v-6.4q-2.27 3.04-6.17 5.07-3.91 2.03-8.9 2.03-5.55 0-10.16-2.85-4.6-2.85-7.3-7.96-2.69-5.12-2.69-11.6 0-6.48 2.69-11.48zm30.7 3.91q-1.84-3.28-4.81-5-2.97-1.72-6.4-1.72-3.44 0-6.4 1.68-2.97 1.68-4.81 4.92-1.83 3.24-1.83 7.69 0 4.45 1.83 7.81 1.84 3.36 4.84 5.11 3.01 1.76 6.37 1.76 3.43 0 6.4-1.72 2.97-1.71 4.81-5.03 1.83-3.32 1.83-7.77 0-4.45-1.83-7.73z"/>
					<path id="&lt;Compound Path&gt;" class="s0" d="m797.97 224.81v23.82q0 2.42 1.13 3.48 1.14 1.05 3.87 1.05h5.47v7.42h-7.03q-6.02 0-9.22-2.81-3.2-2.81-3.2-9.14v-23.82h-5.08v-7.26h5.08v-10.7h8.98v10.7h10.47v7.26z"/>
					<path id="&lt;Compound Path&gt;" class="s0" d="m847.67 218.96q3.87 2.11 6.1 6.24 2.22 4.14 2.22 10v25.38h-8.82v-24.05q0-5.78-2.89-8.87-2.89-3.08-7.89-3.08-5 0-7.92 3.08-2.93 3.09-2.93 8.87v24.05h-8.9v-57.79h8.9v19.76q2.26-2.73 5.74-4.22 3.47-1.48 7.61-1.48 4.92 0 8.78 2.11z"/>
					<path id="&lt;Compound Path&gt;" class="s0" d="m906.05 217.55l-26.4 63.26h-9.21l8.74-20.93-16.94-42.33h9.92l12.1 32.8 12.57-32.8z"/>
				</g>
			</g>
			<path id="&lt;Compound Path&gt;" fill-rule="evenodd" class="s0" d="m167.05 179.39c-5.06-0.11-9.86-1.33-14.23-3.14-8.67-3.64-15.97-10.03-20.83-17.6-4.87-7.45-7.59-15.61-9.13-23.48-1.52-7.91-2-15.59-1.78-23.36 0.72-22.71 8.01-44.68 20.19-63.49-4.44-3.46-9.07-6.67-13.92-9.5-11.09-6.42-23.5-10.87-35.65-12.63-12.27-1.9-24.73 0.01-35.86 4.89-11.03 5.18-20.66 13.54-27.35 24.2-6.95 10.53-10.9 22.96-12.89 35.97-3.91 26.08 0.91 53.51 10.01 79.15 4.42 12.93 10.21 25.4 16.49 37.75 6.26 12.34 13.27 24.3 20.68 36.03 14.91 23.4 32.13 45.44 51.28 65.82-20.84-18.65-39.9-39.49-56.51-62.24-8.37-11.33-16.11-23.15-23.22-35.35-7.08-12.18-13.82-24.76-19.21-38.02-10.77-26.35-17.41-55.41-14.39-85.03 1.49-14.65 5.65-29.66 13.72-42.8 3.82-6.68 8.89-12.67 14.44-18.12 5.68-5.37 12.22-9.85 19.22-13.47 14.15-6.85 30.38-9.71 45.83-7.85 15.56 1.8 29.96 6.94 43.21 14.17 5.77 3.21 11.27 6.87 16.54 10.82q1.43-1.6 2.91-3.15c2.63-2.79 5.48-5.37 8.36-7.93 3.15-2.47 6.34-5.14 9.84-7.14 6.85-4.33 14.28-7.54 21.86-9.68 7.58-2.21 15.33-3.55 23.05-3.93 7.73-0.46 15.46-0.17 23.05 1 15.15 2.17 30.04 7.15 43.3 15.37 13.33 8 24.37 19.23 33.12 31.66 8.64 12.56 14.85 26.56 18.67 41.09 2.28 9.3 3.74 18.85 4.16 28.41h-18.59c-1.71-20.85-8.81-41.19-20.69-57.9-7.52-10.2-16.68-19.16-27.5-25.33-10.61-6.33-22.88-10.21-35.38-11.74-12.46-1.51-25.28-0.89-36.91 2.65-5.85 1.67-11.36 4.13-16.28 7.31-2.59 1.46-4.72 3.37-7.08 5.18-2.32 2.11-4.65 4.22-6.79 6.54-0.77 0.8-1.46 1.7-2.21 2.53 0.66 0.69 1.38 1.32 2.03 2.02 10.16 11.14 18.67 23.85 24.91 37.71 2.93 7 5.7 14.14 7.36 21.61 1.91 7.35 3.13 15.08 3.15 23.36-0.03 8.24-1.5 17.08-5.8 25.36-4.25 8.01-10.85 15.34-20.23 19.41-4.62 2.06-9.92 2.99-14.95 2.87zm-5.45-23.92c4.23 1.78 8.12 1.9 11.57 0.43 3.56-1.42 7.06-4.91 9.33-9.16 2.2-4.14 3.33-9.44 3.37-15.13 0.03-5.69-0.81-11.91-2.41-18.07-1.35-6.19-3.49-12.19-5.83-18.11-4.82-11.26-11.52-21.77-19.55-31.15-8.54 14.71-13.64 31.43-14.05 48.21-0.41 12.41 1.42 25.25 6.99 33.78 2.64 4.22 6.38 7.36 10.58 9.2z"/>
		</g>
		<path id="&lt;Path&gt;" class="s1" d="m324.28 131.22v129.36h23.76v-129.36z"/>
		<path id="&lt;Path&gt;" class="s1" d="m273.92 183.95v-52.73h-23.77v52.87l-52.87 0.31 0.14 23.76 52.73-0.31v52.73h23.77v-52.87l50.2-0.25v-23.76z"/>
	</g>
</svg>