<svg width="32" height="32" viewBox="0 0 32 32" fill="none" xmlns="http://www.w3.org/2000/svg">
  <rect width="32" height="32" rx="4" fill="#FDFEFD"/>
  <path d="M8 12C8 8 12 4 16 4C20 4 24 8 24 12C24 16 20 20 16 20C12 20 8 16 8 12Z" fill="#C0717A"/>
  <path d="M12 12C12 10 13 9 15 9C17 9 18 10 18 12C18 14 17 15 15 15C13 15 12 14 12 12Z" fill="#FCFCFC"/>
  <path d="M20 8C20 6 21 5 23 5C25 5 26 6 26 8C26 10 25 11 23 11C21 11 20 10 20 8Z" fill="#C0717A"/>
  <path d="M6 20C6 18 7 17 9 17C11 17 12 18 12 20C12 22 11 23 9 23C7 23 6 22 6 20Z" fill="#C0717A"/>
</svg>