<?xml version="1.0" encoding="UTF-8"?>
<svg version="1.1" xmlns="http://www.w3.org/2000/svg" width="1248" height="832">
<path d="M0 0 C411.84 0 823.68 0 1248 0 C1248 274.56 1248 549.12 1248 832 C836.16 832 424.32 832 0 832 C0 557.44 0 282.88 0 0 Z " fill="#FDFEFD" transform="translate(0,0)"/>
<path d="M0 0 C17.09996559 2.65045338 31.46118346 9.88546474 41.9375 24 C45.91422361 30.04910071 47.67606658 35.84068223 48.75 42.9375 C49.68912073 48.09470536 52.12985102 51.29286572 55.25 55.4140625 C60.769939 63.57075808 62.1111739 72.96022663 62.31640625 82.58203125 C62.3475779 83.80329964 62.3475779 83.80329964 62.37937927 85.04924011 C62.44449463 87.63691179 62.50358208 90.22468053 62.5625 92.8125 C62.60572142 94.57227545 62.64933685 96.33204128 62.69335938 98.09179688 C62.8001368 102.39443309 62.90151018 106.69716643 63 111 C66.04847706 110.3824206 67.34217731 109.75762441 70 107.875 C73 106 73 106 75.375 106.25 C76.179375 106.62125 76.179375 106.62125 77 107 C76.93070495 110.46475274 76.80173399 113.0684222 74.48046875 115.765625 C71.6873726 118.1882684 69.5383792 119.82054027 66 121 C67.34549662 125.8292419 69.48173208 129.51348225 72.4375 133.5 C73.0881543 134.39489136 73.0881543 134.39489136 73.75195312 135.30786133 C77.9438771 141.02690739 82.32915681 146.59383002 86.75 152.13671875 C90.53843813 156.95776936 91.53435326 159.47590511 91.359375 165.50390625 C90.79023109 169.45698187 89.09254205 171.68059346 86 174 C82.41836072 176.18319023 78.7600514 178.1430219 75 180 C74.81751641 184.65333144 75.25137514 187.73772691 77 192 C77.375 195 77.375 195 77 198 C76.34 198.70125 75.68 199.4025 75 200.125 C72.20272709 204.14607981 72.82130655 207.38720178 73.15234375 212.16015625 C72.97599858 215.44741117 72.30556759 216.69443241 70 219 C69.34 219 68.68 219 68 219 C65.91993906 223.26785413 65.76849831 227.16080506 65.6875 231.8125 C65.3711945 239.47055952 63.85954399 243.98097072 58.58203125 249.4765625 C51.62049659 255.85952458 44.87812685 256.47121014 35.875 256.3125 C34.33912231 256.29993164 34.33912231 256.29993164 32.7722168 256.28710938 C26.34410943 256.18522955 20.19423376 255.61363911 13.86328125 254.46484375 C4.50380926 252.90847937 4.50380926 252.90847937 -4 256.0625 C-4.66 257.031875 -5.32 258.00125 -6 259 C-6.70125 260.010625 -7.4025 261.02125 -8.125 262.0625 C-16.01423273 277.00714411 -14.05782975 295.36569203 -9.4140625 310.96875 C-1.87793266 334.78664183 13.91599733 353.04784295 33.25 368.375 C36 371 36 371 36.5625 373.75 C36 376 36 376 34 378 C4.31699502 381.04852484 -26.72514075 367.78377478 -50 350 C-54.21600433 346.55442027 -58.10689429 342.80181909 -62 339 C-63.38638672 337.72382812 -63.38638672 337.72382812 -64.80078125 336.421875 C-76.97513479 324.91909118 -84.99110148 311.06663458 -92 296 C-92.40863281 295.19433594 -92.81726563 294.38867188 -93.23828125 293.55859375 C-108.08808464 263.34297064 -105.98258834 222.73572771 -96 191.625 C-88.29798634 169.14691022 -76.19414841 148.85929886 -63.5 128.92138672 C-47.15232784 103.21318222 -32.27017972 76.29959797 -24.9375 46.5 C-24.68073486 45.46335205 -24.42396973 44.4267041 -24.15942383 43.35864258 C-21.21052465 31.15006886 -18.80702871 18.71859232 -18.50390625 6.12890625 C-16.45024199 -2.54742726 -6.91126842 -0.78057467 0 0 Z " fill="#C0717A" transform="translate(640,245)"/>
<path d="M0 0 C6.25964843 -0.41844853 11.29028177 1.04194551 17.1875 3.0625 C18.58415894 3.53731812 18.58415894 3.53731812 20.0090332 4.02172852 C45.41794345 12.9589913 65.30855335 33.44631914 76.875 57.4375 C77.98808554 59.93274408 79.01362787 62.45226474 80 65 C80.65162109 66.670625 80.65162109 66.670625 81.31640625 68.375 C94.54972391 110.42651813 75.29037173 159.55532611 56.21875 196.42578125 C55.33885005 198.0784698 54.45371358 199.72838477 53.5625 201.375 C53.16168213 202.12467041 52.76086426 202.87434082 52.34790039 203.64672852 C48.8940978 209.81136878 48.8940978 209.81136878 45 211 C45.56858122 206.12997825 46.62834835 201.86862811 48.25 197.25 C61.25318072 157.46074243 68.07487026 103.5972448 49 65 C48.01 63.515 48.01 63.515 47 62 C47.2575708 62.65556885 47.5151416 63.3111377 47.78051758 63.98657227 C50.40236715 70.88665699 52.2358984 77.70749719 53.6875 84.9375 C53.89955078 85.93201172 54.11160156 86.92652344 54.33007812 87.95117188 C56.6186203 99.09066898 57.17512527 110.08808363 57.125 121.4375 C57.12234131 122.52627441 57.11968262 123.61504883 57.11694336 124.73681641 C57.0032822 143.9901534 57.0032822 143.9901534 55 150 C52.63994535 149.62055493 51.33271358 149.35767786 49.67895508 147.57983398 C49.29634521 146.97469971 48.91373535 146.36956543 48.51953125 145.74609375 C48.08229736 145.06506592 47.64506348 144.38403809 47.19458008 143.68237305 C46.73849365 142.94156494 46.28240723 142.20075684 45.8125 141.4375 C45.33127686 140.67026611 44.85005371 139.90303223 44.35424805 139.11254883 C42.88577762 136.75170208 41.44013213 134.37821819 40 132 C39.58492187 131.32388672 39.16984375 130.64777344 38.7421875 129.95117188 C32.576431 119.8348396 27.98308841 109.31132983 23.84082031 98.22265625 C23.32040893 96.84698109 22.78156939 95.47793728 22.21386719 94.12109375 C17.76517531 83.25036029 16.60172933 71.65171651 15.77868652 60.03921509 C14.28347328 39.5916693 11.59434358 20.39151538 0 3 C0 2.01 0 1.02 0 0 Z " fill="#FCFCFC" transform="translate(525,154)"/>
<path d="M0 0 C21.59384191 -1.57046123 44.96312594 9.65638131 61.0625 23.37109375 C77.22859056 37.72640764 87.59107077 54.80658275 92 76 C92.26490234 77.221427 92.26490234 77.221427 92.53515625 78.4675293 C93.94385732 85.42423967 94.31383278 92.10043866 94.25 99.1875 C94.24178223 100.31969971 94.23356445 101.45189941 94.22509766 102.6184082 C93.81486344 134.29687094 88.63506368 166.15330484 77.4375 195.875 C77.05142578 196.94363281 76.66535156 198.01226562 76.26757812 199.11328125 C75.88923828 200.12519531 75.51089844 201.13710938 75.12109375 202.1796875 C74.7852124 203.08444824 74.44933105 203.98920898 74.10327148 204.92138672 C73 207 73 207 70 208 C69.81309704 202.24467769 70.41008838 197.37542049 71.8125 191.8125 C73.43660079 184.95293489 74.70046665 178.10487101 75.6875 171.125 C75.80649658 170.29460205 75.92549316 169.4642041 76.0480957 168.60864258 C81.50149784 128.73629139 78.30990565 87.20417996 53.71484375 53.90625 C51.8502999 51.56488277 49.95968499 49.26197683 48 47 C48.58394531 47.82564453 48.58394531 47.82564453 49.1796875 48.66796875 C62.05747909 67.80662214 75.42157665 95.30705584 74 119 C64.41645607 117.6619834 56.81709499 108.32772089 50 102 C49.38253906 101.44828125 48.76507812 100.8965625 48.12890625 100.328125 C35.60184024 88.64005417 27.75410248 71.90389215 22.88671875 55.7109375 C22.0083281 52.86489926 22.0083281 52.86489926 20.53125 49.72265625 C19.05896617 46.36316808 18.19228568 43.00697125 17.36547852 39.44067383 C14.40005307 26.68738057 9.67994556 14.53227716 1.03125 4.48046875 C0 3 0 3 0 0 Z " fill="#FCFCFC" transform="translate(466,232)"/>
<path d="M0 0 C13.1293656 9.02643885 19.55753956 23.1406545 22.67578125 38.28125 C23.94813542 45.55184527 24.23899201 52.63107983 24 60 C5.76073026 57.72343917 -8.45529061 39.38837434 -19.0703125 25.828125 C-22.39264819 21.51446455 -25.63007698 17.13958224 -28.8671875 12.76171875 C-32.75453088 7.72810745 -36.94548362 2.65403534 -41.7578125 -1.52734375 C-43 -3 -43 -3 -43 -7 C-28.3637751 -12.3222636 -12.85731834 -7.80367794 0 0 Z " fill="#FCFCFC" transform="translate(509,349)"/>
<path d="M0 0 C6.25964843 -0.41844853 11.29028177 1.04194551 17.1875 3.0625 C18.58415894 3.53731812 18.58415894 3.53731812 20.0090332 4.02172852 C45.41794345 12.9589913 65.30855335 33.44631914 76.875 57.4375 C77.98808554 59.93274408 79.01362787 62.45226474 80 65 C80.65162109 66.670625 80.65162109 66.670625 81.31640625 68.375 C94.54972391 110.42651813 75.29037173 159.55532611 56.21875 196.42578125 C55.33885005 198.0784698 54.45371358 199.72838477 53.5625 201.375 C53.16168213 202.12467041 52.76086426 202.87434082 52.34790039 203.64672852 C48.8940978 209.81136878 48.8940978 209.81136878 45 211 C45.56858122 206.12997825 46.62834835 201.86862811 48.25 197.25 C61.25318072 157.46074243 68.07487026 103.5972448 49 65 C48.01 63.515 48.01 63.515 47 62 C47.2575708 62.65556885 47.5151416 63.3111377 47.78051758 63.98657227 C50.40236715 70.88665699 52.2358984 77.70749719 53.6875 84.9375 C53.89955078 85.93201172 54.11160156 86.92652344 54.33007812 87.95117188 C56.6186203 99.09066898 57.17512527 110.08808363 57.125 121.4375 C57.12234131 122.52627441 57.11968262 123.61504883 57.11694336 124.73681641 C57.0032822 143.9901534 57.0032822 143.9901534 55 150 C52.63994535 149.62055493 51.33271358 149.35767786 49.67895508 147.57983398 C49.29634521 146.97469971 48.91373535 146.36956543 48.51953125 145.74609375 C48.08229736 145.06506592 47.64506348 144.38403809 47.19458008 143.68237305 C46.73849365 142.94156494 46.28240723 142.20075684 45.8125 141.4375 C45.33127686 140.67026611 44.85005371 139.90303223 44.35424805 139.11254883 C42.88577762 136.75170208 41.44013213 134.37821819 40 132 C39.58492187 131.32388672 39.16984375 130.64777344 38.7421875 129.95117188 C32.576431 119.8348396 27.98308841 109.31132983 23.84082031 98.22265625 C23.32040893 96.84698109 22.78156939 95.47793728 22.21386719 94.12109375 C17.76517531 83.25036029 16.60172933 71.65171651 15.77868652 60.03921509 C14.28347328 39.5916693 11.59434358 20.39151538 0 3 C0 2.01 0 1.02 0 0 Z M4 3 C5.04749723 5.69356431 6.15264712 8.32971777 7.3671875 10.953125 C10.2046637 17.15734758 12.52847873 23.20304065 14.0703125 29.85546875 C14.24038818 30.58543564 14.41046387 31.31540253 14.58569336 32.06748962 C16.5842667 41.06880536 17.37001651 50.17904717 18.20898438 59.34594727 C19.22451397 70.22678789 21.01917423 80.4810669 24 91 C24.22816406 91.81621826 24.45632813 92.63243652 24.69140625 93.47338867 C30.21121247 112.18269875 40.28643732 130.45558663 52 146 C52.33 146 52.66 146 53 146 C56.69638833 111.6563413 52.70077627 79.66900745 39 48 C52.41853776 57.58134759 58.17131768 79.55417353 61 95 C61.185625 95.99644531 61.37125 96.99289063 61.5625 98.01953125 C63.96057664 115.61424602 62.2208896 134.448803 60 152 C59.89816406 152.85996582 59.79632812 153.71993164 59.69140625 154.60595703 C58.389568 165.50081636 56.49916017 176.030446 53.5378418 186.60571289 C53.32426025 187.3868042 53.11067871 188.16789551 52.890625 188.97265625 C52.69500977 189.65593994 52.49939453 190.33922363 52.29785156 191.04321289 C51.95454357 193.29863387 52.31423657 194.84237614 53 197 C64.134657 174.60067969 74.14675406 152.69888339 79 128 C79.16371094 127.18208984 79.32742188 126.36417969 79.49609375 125.52148438 C82.97815494 107.52124244 84.55184606 87.71196232 79 70 C78.67128906 68.94296875 78.34257813 67.8859375 78.00390625 66.796875 C73.31446264 53.36137566 65.45695621 41.54945656 56 31 C55.38898437 30.30648437 54.77796875 29.61296875 54.1484375 28.8984375 C42.63181203 16.59770135 25.69515403 6.18725668 9 3 C7.33381088 2.96010533 5.66592591 2.95031449 4 3 Z " fill="#C0767F" transform="translate(525,154)"/>
<path d="M0 0 C21.59384191 -1.57046123 44.96312594 9.65638131 61.0625 23.37109375 C77.22859056 37.72640764 87.59107077 54.80658275 92 76 C92.26490234 77.221427 92.26490234 77.221427 92.53515625 78.4675293 C93.94385732 85.42423967 94.31383278 92.10043866 94.25 99.1875 C94.24178223 100.31969971 94.23356445 101.45189941 94.22509766 102.6184082 C93.81486344 134.29687094 88.63506368 166.15330484 77.4375 195.875 C77.05142578 196.94363281 76.66535156 198.01226562 76.26757812 199.11328125 C75.88923828 200.12519531 75.51089844 201.13710938 75.12109375 202.1796875 C74.7852124 203.08444824 74.44933105 203.98920898 74.10327148 204.92138672 C73 207 73 207 70 208 C69.81309704 202.24467769 70.41008838 197.37542049 71.8125 191.8125 C73.43660079 184.95293489 74.70046665 178.10487101 75.6875 171.125 C75.80649658 170.29460205 75.92549316 169.4642041 76.0480957 168.60864258 C81.50149784 128.73629139 78.30990565 87.20417996 53.71484375 53.90625 C51.8502999 51.56488277 49.95968499 49.26197683 48 47 C48.58394531 47.82564453 48.58394531 47.82564453 49.1796875 48.66796875 C62.05747909 67.80662214 75.42157665 95.30705584 74 119 C64.41645607 117.6619834 56.81709499 108.32772089 50 102 C49.38253906 101.44828125 48.76507812 100.8965625 48.12890625 100.328125 C35.60184024 88.64005417 27.75410248 71.90389215 22.88671875 55.7109375 C22.0083281 52.86489926 22.0083281 52.86489926 20.53125 49.72265625 C19.05896617 46.36316808 18.19228568 43.00697125 17.36547852 39.44067383 C14.40005307 26.68738057 9.67994556 14.53227716 1.03125 4.48046875 C0 3 0 3 0 0 Z M4 3 C4.57943359 4.00337402 5.15886719 5.00674805 5.75585938 6.04052734 C12.2198187 17.37449078 17.20345338 28.602717 20.84674072 41.1383667 C29.41796303 70.48457256 41.86697965 98.06446309 69 115 C69.66 115 70.32 115 71 115 C69.81821548 90.97038151 58.87509524 63.04051656 43.25390625 44.67578125 C41.21746413 42.25816799 40.35443102 41.0717355 40 38 C59.53756391 48.91193729 70.48597455 74.41926976 76.45695496 95.03405762 C79.79439315 107.11631723 80.45152558 118.80635707 80.33618164 131.27246094 C80.31252565 133.99704629 80.31565712 136.72064966 80.32226562 139.4453125 C80.30039286 153.20600591 79.01034163 166.46875883 76.4375 180 C75.44182724 185.32046676 74.62991808 190.62469902 74 196 C77.44843928 190.82734108 78.63661158 184.57194837 80.3125 178.625 C80.51286865 177.916922 80.7132373 177.20884399 80.91967773 176.47930908 C87.69135571 152.35062992 91.18809456 128.15287256 91.18530273 103.07666016 C91.18750506 100.86992519 91.20580132 98.66367964 91.22460938 96.45703125 C91.32623759 71.72093207 83.49797954 49.7470611 66 32 C65.39929688 31.32710938 64.79859375 30.65421875 64.1796875 29.9609375 C50.88595771 15.51623543 28.91366685 4.48450889 9.28515625 2.76171875 C6.91961227 2.71715958 6.91961227 2.71715958 4 3 Z " fill="#C17981" transform="translate(466,232)"/>
<path d="M0 0 C13.1293656 9.02643885 19.55753956 23.1406545 22.67578125 38.28125 C23.94813542 45.55184527 24.23899201 52.63107983 24 60 C5.76073026 57.72343917 -8.45529061 39.38837434 -19.0703125 25.828125 C-22.39264819 21.51446455 -25.63007698 17.13958224 -28.8671875 12.76171875 C-32.75453088 7.72810745 -36.94548362 2.65403534 -41.7578125 -1.52734375 C-43 -3 -43 -3 -43 -7 C-28.3637751 -12.3222636 -12.85731834 -7.80367794 0 0 Z M-40 -4 C-39.35405884 -3.38668823 -39.35405884 -3.38668823 -38.69506836 -2.76098633 C-34.17654642 1.62831192 -30.31703127 6.26328309 -26.5625 11.3125 C-25.42388942 12.82085049 -24.28456959 14.32866585 -23.14453125 15.8359375 C-22.6026416 16.55491211 -22.06075195 17.27388672 -21.50244141 18.01464844 C-15.69803771 25.68468595 -9.53206699 32.94153933 -3 40 C-2.46117187 40.61617188 -1.92234375 41.23234375 -1.3671875 41.8671875 C2.37400832 45.94678294 6.63593886 48.93257138 11.25 51.9375 C11.86512451 52.33976807 12.48024902 52.74203613 13.11401367 53.15649414 C16.76593167 55.47452029 16.76593167 55.47452029 21 56 C22.25024375 38.96890179 18.21399125 22.94161461 7.125 9.7734375 C-1.60653965 0.37294924 -13.42083119 -5.62762768 -26.31640625 -6.3125 C-33.7719151 -6.94541132 -33.7719151 -6.94541132 -40 -4 Z " fill="#C27A82" transform="translate(509,349)"/>
<path d="M0 0 C8.20861797 3.35155362 12.22839686 13.81453832 15.5859375 21.4453125 C21.74542333 36.92910286 24.35622869 51.8043915 24.25 68.5 C24.25773438 69.71558594 24.26546875 70.93117188 24.2734375 72.18359375 C24.25612906 80.29259611 23.46462937 88.02627748 22 96 C21.67 96 21.34 96 21 96 C21.02618408 94.94949463 21.05236816 93.89898926 21.0793457 92.81665039 C22.43925391 51.74547482 22.43925391 51.74547482 8 14 C7.67 15.32 7.34 16.64 7 18 C5.82625827 15.56568361 4.66084237 13.12795818 3.5 10.6875 C3.16613281 9.99720703 2.83226562 9.30691406 2.48828125 8.59570312 C0 3.33984375 0 3.33984375 0 0 Z " fill="#BF7880" transform="translate(564,202)"/>
<path d="M0 0 C0.66 0 1.32 0 2 0 C11.13326353 20.09317977 12.67248271 39.07706368 12 61 C9.74208904 59.23253231 9.05400741 58.34198113 8.59936523 55.46313477 C8.58591064 54.46596436 8.57245605 53.46879395 8.55859375 52.44140625 C8.51895508 50.77754883 8.51895508 50.77754883 8.47851562 49.08007812 C8.46498047 47.91927734 8.45144531 46.75847656 8.4375 45.5625 C8.25352121 33.65839079 7.50510725 22.57681161 2.875 11.5 C1.23756826 7.50923612 0 4.40813539 0 0 Z " fill="#C0777D" transform="translate(548,284)"/>
<path d="M0 0 C1.75648286 2.63472428 2.44403845 4.1084096 3.21875 7.0625 C3.42790039 7.85390381 3.63705078 8.64530762 3.85253906 9.46069336 C4.17303223 10.71765015 4.17303223 10.71765015 4.5 12 C4.72139648 12.85924072 4.94279297 13.71848145 5.17089844 14.60375977 C8.86883526 29.16335573 10.17776117 43.23058276 10.0625 58.25 C10.05798828 59.38824219 10.05347656 60.52648437 10.04882812 61.69921875 C10.03720214 64.46620409 10.02086431 67.23307158 10 70 C9.67 70 9.34 70 9 70 C8.98018066 69.34926514 8.96036133 68.69853027 8.93994141 68.02807617 C8.84470701 65.08080849 8.73502182 62.13425115 8.625 59.1875 C8.5940625 58.16333984 8.563125 57.13917969 8.53125 56.08398438 C8.49257813 55.10107422 8.45390625 54.11816406 8.4140625 53.10546875 C8.3826416 52.19949951 8.3512207 51.29353027 8.31884766 50.36010742 C8.13972081 47.73474608 8.13972081 47.73474608 6 45 C5.65283203 42.9855957 5.65283203 42.9855957 5.5078125 40.67578125 C5.44456787 39.81927979 5.38132324 38.96277832 5.31616211 38.08032227 C5.25307861 37.16694092 5.18999512 36.25355957 5.125 35.3125 C4.45838645 27.03009395 3.13057908 19.34407813 0.90234375 11.34765625 C-1.40106141 2.80212282 -1.40106141 2.80212282 0 0 Z " fill="#C88C94" transform="translate(572,218)"/>
<path d="M0 0 C0.33 0 0.66 0 1 0 C1.60374987 16.90499642 -2.55919163 33.56276686 -6 50 C-6.99 50 -7.98 50 -9 50 C-8.21535279 43.27791923 -7.15623125 36.61552208 -6.0625 29.9375 C-4.68654796 21.50593739 -3.43037261 13.08918879 -2.4921875 4.59765625 C-2 2 -2 2 0 0 Z " fill="#C3848B" transform="translate(586,290)"/>
<path d="M0 0 C0.33 0 0.66 0 1 0 C1.80343974 4.94766604 2.15971357 9.75325886 2.16796875 14.76953125 C2.17129715 15.49057541 2.17462555 16.21161957 2.17805481 16.95451355 C2.18308694 18.47137826 2.18546429 19.9882539 2.18530273 21.50512695 C2.18748422 23.79592619 2.20566565 26.08623909 2.22460938 28.37695312 C2.25325917 36.10074927 2.04349046 43.4917645 0 51 C-0.33 51 -0.66 51 -1 51 C-1.07101018 39.48846062 -0.85781292 28.00524623 -0.5 16.5 C-0.45160501 14.88672527 -0.40342695 13.27344402 -0.35546875 11.66015625 C-0.23946623 7.77335816 -0.12057621 3.88665878 0 0 Z " fill="#BC727C" transform="translate(545,346)"/>
<path d="M0 0 C2.22472631 3.33708947 3.32850781 6.64771615 4.5 10.4375 C4.72067139 11.15035156 4.94134277 11.86320312 5.16870117 12.59765625 C7.79306809 21.32404278 9.35119221 29.8690025 9 39 C8.01 39 7.02 39 6 39 C5.87044922 37.58074219 5.87044922 37.58074219 5.73828125 36.1328125 C4.84699205 27.45411979 3.22780222 19.35640002 0.58911133 11.02978516 C-0.64828484 6.98832266 -1.32784609 4.0801089 0 0 Z " fill="#C7868D" transform="translate(538,314)"/>
<path d="M0 0 C0.99 0.33 1.98 0.66 3 1 C1.99876968 10.06996874 0.74519193 18.91842032 -1.31640625 27.81640625 C-2.04236822 31.19731484 -2.54622096 34.5728878 -3 38 C-4.485 38.495 -4.485 38.495 -6 39 C-5.40413316 32.44546478 -4.33266902 26.01373867 -3.16357422 19.54150391 C-1.9932386 13.0436282 -0.96555997 6.53172923 0 0 Z " fill="#BF757D" transform="translate(543,393)"/>
<path d="M0 0 C0.33 0 0.66 0 1 0 C0.45108667 6.41635173 -1.12551339 11.91872901 -3.375 17.9375 C-3.67921875 18.79923828 -3.9834375 19.66097656 -4.296875 20.54882812 C-4.59851563 21.36673828 -4.90015625 22.18464844 -5.2109375 23.02734375 C-5.48212402 23.76718506 -5.75331055 24.50702637 -6.03271484 25.26928711 C-7 27 -7 27 -10 28 C-10 25.36 -10 22.72 -10 20 C-8.68 19.67 -7.36 19.34 -6 19 C-5.73445312 17.87980469 -5.46890625 16.75960938 -5.1953125 15.60546875 C-4.83885504 14.13273662 -4.48206692 12.66008449 -4.125 11.1875 C-3.95097656 10.44951172 -3.77695312 9.71152344 -3.59765625 8.95117188 C-2.75507489 5.50282963 -1.98714425 2.98071638 0 0 Z " fill="#BB6F79" transform="translate(546,412)"/>
<path d="M0 0 C0.33 0 0.66 0 1 0 C1.97669102 5.73512968 2.19170492 11.31221753 2.1875 17.125 C2.18814453 18.04627686 2.18878906 18.96755371 2.18945312 19.91674805 C2.13405977 27.11095975 1.46638849 33.9430054 0 41 C-0.33 41 -0.66 41 -1 41 C-1.18359241 27.3121658 -0.61491335 13.67200967 0 0 Z " fill="#B96E76" transform="translate(586,257)"/>
<path d="M0 0 C0.99 0.33 1.98 0.66 3 1 C2.3781885 4.02152093 1.75265425 7.04219214 1.125 10.0625 C0.95097656 10.91005859 0.77695312 11.75761719 0.59765625 12.63085938 C-0.41561686 17.49081743 -1.56804664 22.24617286 -3 27 C-3.99 26.34 -4.98 25.68 -6 25 C-5.37571782 22.33316351 -4.75059174 19.66652933 -4.125 17 C-3.95097656 16.25621094 -3.77695312 15.51242187 -3.59765625 14.74609375 C-2.44097218 9.81947641 -1.23786742 4.90686184 0 0 Z " fill="#C37E85" transform="translate(551,388)"/>
<path d="M0 0 C2.52304204 3.78456307 3.16526807 7.29050592 4.125 11.6875 C4.30675781 12.46544922 4.48851562 13.24339844 4.67578125 14.04492188 C5.80687092 19.14332983 6.17898543 23.77959177 6 29 C2.49268103 25.26087547 1.79166357 21.04465097 0.75 16.1875 C0.564375 15.40568359 0.37875 14.62386719 0.1875 13.81835938 C-0.91029649 8.84085027 -1.04038431 4.99517849 0 0 Z " fill="#C6818A" transform="translate(534,322)"/>
<path d="M0 0 C4.10447392 0.51776621 5.95699523 2.64627444 8.75 5.5625 C9.94882812 6.80193359 9.94882812 6.80193359 11.171875 8.06640625 C11.77515625 8.70449219 12.3784375 9.34257812 13 10 C12.34 10.66 11.68 11.32 11 12 C10.01 11.34 9.02 10.68 8 10 C8.33 11.32 8.66 12.64 9 14 C5.74808029 10.83841139 2.58685081 7.73656228 0 4 C0 2.68 0 1.36 0 0 Z " fill="#BD707A" transform="translate(506,270)"/>
<path d="M0 0 C0.33 0 0.66 0 1 0 C1.78579793 4.14923058 2.11854983 8.05293431 2.09765625 12.2734375 C2.09282227 14.00400391 2.09282227 14.00400391 2.08789062 15.76953125 C2.07951172 16.95933594 2.07113281 18.14914062 2.0625 19.375 C2.05798828 20.58800781 2.05347656 21.80101562 2.04882812 23.05078125 C2.03708354 26.03390507 2.0206584 29.01692679 2 32 C-0.08777735 30.3118632 -0.92913999 29.44709752 -1.35644531 26.75097656 C-1.34709961 25.88956055 -1.33775391 25.02814453 -1.328125 24.140625 C-1.32296875 23.18929688 -1.3178125 22.23796875 -1.3125 21.2578125 C-1.291875 20.26523437 -1.27125 19.27265625 -1.25 18.25 C-1.24484375 17.27289063 -1.2396875 16.29578125 -1.234375 15.2890625 C-1.17842054 10.09928615 -0.88574887 5.11448543 0 0 Z " fill="#CF9E9F" transform="translate(558,313)"/>
<path d="M0 0 C3.26912829 1.05765915 5.53594141 2.3555975 8.0625 4.625 C10.88883613 7.4191481 10.88883613 7.4191481 15 7 C15 8.65 15 10.3 15 12 C11.40942326 11.38517522 9.22666475 9.91446896 6.375 7.6875 C5.59898437 7.09324219 4.82296875 6.49898438 4.0234375 5.88671875 C2.01245914 4.0116173 1.03524923 2.52133281 0 0 Z " fill="#BF737B" transform="translate(524,339)"/>
<path d="M0 0 C2.85359322 1.42679661 2.87581233 3.00216622 4 6 C4.70685102 7.50069909 5.41530477 9.00064388 6.125 10.5 C7.61749869 13.81113598 8.47640459 16.3078644 8 20 C5.45967273 16.84360534 3.66506105 13.56709616 1.875 9.9375 C1.35679687 8.89464844 0.83859375 7.85179687 0.3046875 6.77734375 C-1 4 -1 4 -2 1 C-1.34 0.67 -0.68 0.34 0 0 Z " fill="#BC7784" transform="translate(528,156)"/>
<path d="M0 0 C0.33 0 0.66 0 1 0 C0.47148259 6.55361587 -0.46360365 12.88352268 -3 19 C-3.66 19.33 -4.32 19.66 -5 20 C-5.22009007 15.32131099 -4.49152751 11.63731877 -3.0625 7.1875 C-2.70285156 6.04667969 -2.34320312 4.90585937 -1.97265625 3.73046875 C-1 1 -1 1 0 0 Z " fill="#BF777D" transform="translate(602,291)"/>
<path d="M0 0 C6.16618181 -0.40214229 11.17745757 1.03181664 17 3 C17 3.99 17 4.98 17 6 C16.02417969 5.7834375 15.04835938 5.566875 14.04296875 5.34375 C12.77066406 5.0653125 11.49835937 4.786875 10.1875 4.5 C8.92292969 4.2215625 7.65835938 3.943125 6.35546875 3.65625 C3.07913666 2.90403008 3.07913666 2.90403008 0 3 C0 2.01 0 1.02 0 0 Z " fill="#C2828A" transform="translate(525,154)"/>
<path d="M0 0 C0.33 0.99 0.66 1.98 1 3 C1.66 3 2.32 3 3 3 C2.37798054 5.54242904 1.75248241 8.08391875 1.125 10.625 C0.95097656 11.33785156 0.77695312 12.05070312 0.59765625 12.78515625 C-0.42854338 16.92796216 -1.58790729 20.96726678 -3 25 C-4.4431063 21.12285441 -3.55706351 18.1338056 -2.625 14.1875 C-1.52326721 9.46652351 -0.6279977 4.80849219 0 0 Z " fill="#E8DCDE" transform="translate(544,403)"/>
<path d="M0 0 C0.66 0 1.32 0 2 0 C3.01428514 2.03460769 4.01086789 4.07804606 5 6.125 C5.556875 7.26195312 6.11375 8.39890625 6.6875 9.5703125 C8.00504969 13.01319533 8.26577282 15.35669762 8 19 C5.39645656 16.39645656 4.28519898 13.39907127 2.875 10.0625 C2.45927734 9.11213867 2.45927734 9.11213867 2.03515625 8.14257812 C0.80420986 5.25925296 0 3.16789795 0 0 Z " fill="#B8707A" transform="translate(475,245)"/>
<path d="M0 0 C0.02701408 2.10409639 0.04640223 4.20829178 0.0625 6.3125 C0.07410156 7.48425781 0.08570313 8.65601563 0.09765625 9.86328125 C0 13 0 13 -1 16 C-2.32 15.67 -3.64 15.34 -5 15 C-5 13.35 -5 11.7 -5 10 C-4.67 10 -4.34 10 -4 10 C-3.92652344 9.04287109 -3.92652344 9.04287109 -3.8515625 8.06640625 C-3.77679687 7.24011719 -3.70203125 6.41382813 -3.625 5.5625 C-3.55539062 4.73878906 -3.48578125 3.91507812 -3.4140625 3.06640625 C-3.27742187 2.38449219 -3.14078125 1.70257813 -3 1 C-1 0 -1 0 0 0 Z " fill="#C6848C" transform="translate(581,288)"/>
<path d="M0 0 C1.99170912 2.98756368 3.02907979 5.55424386 4.1875 8.9375 C4.55230469 9.97777344 4.91710937 11.01804688 5.29296875 12.08984375 C5.98896034 14.95456052 6.02529944 16.28981357 5 19 C4.34 19 3.68 19 3 19 C2.51933465 17.10454608 2.04053257 15.20861961 1.5625 13.3125 C1.29566406 12.25675781 1.02882813 11.20101562 0.75390625 10.11328125 C-1.14201183 2.28402367 -1.14201183 2.28402367 0 0 Z " fill="#C17C85" transform="translate(602,214)"/>
<path d="M0 0 C0 0.66 0 1.32 0 2 C-0.72445313 2.04898437 -1.44890625 2.09796875 -2.1953125 2.1484375 C-7.41458867 2.55206152 -12.09813658 3.01275807 -17 5 C-17 4.34 -17 3.68 -17 3 C-17.66 2.67 -18.32 2.34 -19 2 C-12.65176798 -0.30844801 -6.70518586 -0.19818283 0 0 Z " fill="#C78990" transform="translate(485,340)"/>
<path d="M0 0 C0.99 0.33 1.98 0.66 3 1 C2.34 6.28 1.68 11.56 1 17 C0.01 17 -0.98 17 -2 17 C-1.34 11.39 -0.68 5.78 0 0 Z " fill="#C98A92" transform="translate(543,393)"/>
<path d="M0 0 C0.33 0 0.66 0 1 0 C3.24460432 17.39568345 3.24460432 17.39568345 0 23 C-1.21074074 15.19744856 -0.72526532 7.84402334 0 0 Z " fill="#C5888C" transform="translate(556,350)"/>
<path d="M0 0 C2.11044382 3.16566573 2.75552077 5.51197415 3.625 9.1875 C3.88539063 10.27417969 4.14578125 11.36085938 4.4140625 12.48046875 C4.60742188 13.31191406 4.80078125 14.14335937 5 15 C4.01 15.66 3.02 16.32 2 17 C-1.62870159 5.47835991 -1.62870159 5.47835991 0 0 Z " fill="#C5878E" transform="translate(483,261)"/>
<path d="M0 0 C3.16860855 2.65478014 4.50301588 5.83999806 6.1875 9.5625 C6.71730469 10.71878906 7.24710938 11.87507812 7.79296875 13.06640625 C9 16 9 16 9 18 C8.34 18 7.68 18 7 18 C6.67 18.66 6.34 19.32 6 20 C5.73445312 19.05898437 5.46890625 18.11796875 5.1953125 17.1484375 C4.84210937 15.90320313 4.48890625 14.65796875 4.125 13.375 C3.77695312 12.14523438 3.42890625 10.91546875 3.0703125 9.6484375 C2.11833626 6.40337981 1.09288782 3.19989678 0 0 Z " fill="#F0E5E6" transform="translate(570,212)"/>
<path d="M0 0 C2 1 2 1 3.125 3.8125 C4.54124814 9.10130165 4.16040049 14.57311679 4 20 C1.61828969 16.19726926 1.34489055 12.10996803 0.875 7.75 C0.78863281 7.00492187 0.70226562 6.25984375 0.61328125 5.4921875 C0.40213133 3.66222154 0.20015455 1.83120121 0 0 Z " fill="#BD7177" transform="translate(554,300)"/>
<path d="M0 0 C4.10447392 0.51776621 5.95699523 2.64627444 8.75 5.5625 C9.94882812 6.80193359 9.94882812 6.80193359 11.171875 8.06640625 C11.77515625 8.70449219 12.3784375 9.34257812 13 10 C12.34 10.66 11.68 11.32 11 12 C9.16364422 10.19047409 7.33083792 8.37759362 5.5 6.5625 C4.97535156 6.04623047 4.45070313 5.52996094 3.91015625 4.99804688 C2.58775448 3.68423213 1.29164432 2.34406495 0 1 C0 0.67 0 0.34 0 0 Z " fill="#BB6C73" transform="translate(572,176)"/>
<path d="M0 0 C0.33 0 0.66 0 1 0 C0.67 4.95 0.34 9.9 0 15 C-0.99 15 -1.98 15 -3 15 C-4.43410153 11.21180727 -3.51009497 8.93478721 -2.0625 5.25 C-1.49208984 3.77273438 -1.49208984 3.77273438 -0.91015625 2.265625 C-0.60980469 1.51796875 -0.30945313 0.7703125 0 0 Z " fill="#C47B82" transform="translate(578,337)"/>
<path d="M0 0 C2.77426597 4.16139895 4.18550101 7.33049088 3.625 12.375 C3.41875 13.24125 3.2125 14.1075 3 15 C2.67 15 2.34 15 2 15 C1.46467177 13.44240657 0.94734622 11.87861955 0.4375 10.3125 C0.14746094 9.44238281 -0.14257812 8.57226562 -0.44140625 7.67578125 C-1.05141961 4.75368926 -0.77703633 2.85599447 0 0 Z " fill="#C58089" transform="translate(572,218)"/>
<path d="M0 0 C1.46067199 0.45082469 2.91848032 0.91093537 4.375 1.375 C5.18710937 1.63023437 5.99921875 1.88546875 6.8359375 2.1484375 C9 3 9 3 11 5 C7.57056481 6.18771723 5.62215325 5.80226223 2.25 4.5625 C1.45078125 4.27503906 0.6515625 3.98757813 -0.171875 3.69140625 C-0.77515625 3.46324219 -1.3784375 3.23507812 -2 3 C-1.34 2.01 -0.68 1.02 0 0 Z " fill="#C68186" transform="translate(493,342)"/>
<path d="M0 0 C0.66 0 1.32 0 2 0 C2.70226141 1.24176695 3.38629109 2.49385599 4.0625 3.75 C4.44535156 4.44609375 4.82820312 5.1421875 5.22265625 5.859375 C6.1312406 8.36140628 5.88336837 9.5332355 5 12 C4.15885829 10.56705502 3.32734313 9.12845595 2.5 7.6875 C1.80390625 6.48673828 1.80390625 6.48673828 1.09375 5.26171875 C0 3 0 3 0 0 Z " fill="#BC707B" transform="translate(596,204)"/>
<path d="M0 0 C-0.59687434 3.34249629 -1.73603877 5.46436342 -4 8 C-4.66 8 -5.32 8 -6 8 C-5.62403791 5.21788056 -5.32681541 3.4120716 -3.5625 1.1875 C-2 0 -2 0 0 0 Z " fill="#BE6E76" transform="translate(576,357)"/>
<path d="M0 0 C4.74107498 3.25102284 7.20870403 7.10632366 10 12 C7.16582109 11.64880827 6.18351911 11.21508776 4.296875 9.00390625 C3.78640625 8.19824219 3.2759375 7.39257812 2.75 6.5625 C1.96882812 5.35787109 1.96882812 5.35787109 1.171875 4.12890625 C0 2 0 2 0 0 Z " fill="#F1E5E6" transform="translate(513,278)"/>
<path d="M0 0 C2.33061852 3.49592778 2.70295038 5.84130536 3 10 C2.01 11.485 2.01 11.485 1 13 C0.63631108 11.39796533 0.28438048 9.79325797 -0.0625 8.1875 C-0.25972656 7.29417969 -0.45695313 6.40085938 -0.66015625 5.48046875 C-1 3 -1 3 0 0 Z " fill="#C1858D" transform="translate(536,173)"/>
<path d="M0 0 C0.33 0.66 0.66 1.32 1 2 C1.66 2 2.32 2 3 2 C2.34 4.97 1.68 7.94 1 11 C0.01 10.34 -0.98 9.68 -2 9 C-1.34 6.03 -0.68 3.06 0 0 Z " fill="#C98F96" transform="translate(547,404)"/>
<path d="M0 0 C0.66 0.66 1.32 1.32 2 2 C1.9765625 4.3828125 1.9765625 4.3828125 1.625 7.125 C1.51414062 8.03507812 1.40328125 8.94515625 1.2890625 9.8828125 C1.19367187 10.58148438 1.09828125 11.28015625 1 12 C0.01 11.34 -0.98 10.68 -2 10 C-1.34 6.7 -0.68 3.4 0 0 Z " fill="#C5848A" transform="translate(603,282)"/>
<path d="M0 0 C0.66 0 1.32 0 2 0 C2.66 2.64 3.32 5.28 4 8 C3.01 8.33 2.02 8.66 1 9 C0.63877119 7.68942607 0.28619689 6.37646376 -0.0625 5.0625 C-0.35833984 3.96615234 -0.35833984 3.96615234 -0.66015625 2.84765625 C-0.77230469 2.23792969 -0.88445313 1.62820313 -1 1 C-0.67 0.67 -0.34 0.34 0 0 Z " fill="#C8898D" transform="translate(552,293)"/>
<path d="M0 0 C2.11180592 2.57089417 3.66306057 4.63060567 4 8 C3.34 8.66 2.68 9.32 2 10 C-1.07692308 4.58461538 -1.07692308 4.58461538 -0.6875 1.625 C-0.460625 1.08875 -0.23375 0.5525 0 0 Z " fill="#C57D86" transform="translate(557,266)"/>
<path d="M0 0 C2.97 0 5.94 0 9 0 C9.33 0.66 9.66 1.32 10 2 C6.7 2.33 3.4 2.66 0 3 C0 2.01 0 1.02 0 0 Z " fill="#BE7986" transform="translate(466,232)"/>
<path d="M0 0 C1.98 0.99 1.98 0.99 4 2 C3.67 3.65 3.34 5.3 3 7 C2.01 7.33 1.02 7.66 0 8 C0 5.36 0 2.72 0 0 Z " fill="#BD767F" transform="translate(536,432)"/>
<path d="M0 0 C0.66 0 1.32 0 2 0 C2.6875 2.8125 2.6875 2.8125 3 6 C1.5625 7.875 1.5625 7.875 0 9 C-1.10844919 5.67465243 -0.84454356 3.37817425 0 0 Z " fill="#C38289" transform="translate(538,423)"/>
<path d="M0 0 C2.60018816 3.90028225 2.15085514 7.47434569 2 12 C0.4375 10.5 0.4375 10.5 -1 8 C-0.96823234 5.22562457 -0.50364148 2.74713533 0 0 Z " fill="#CD949C" transform="translate(538,339)"/>
<path d="M0 0 C0.99 0.33 1.98 0.66 3 1 C3.33 3.31 3.66 5.62 4 8 C1.10067643 5.60490662 0.49831724 3.68754757 0 0 Z " fill="#C0767E" transform="translate(534,309)"/>
<path d="M0 0 C0.99 0.33 1.98 0.66 3 1 C3.33 3.64 3.66 6.28 4 9 C1.49701566 6.06171403 0.53069061 3.82097239 0 0 Z " fill="#B66C77" transform="translate(532,167)"/>
<path d="M0 0 C1.5625 1.5625 1.5625 1.5625 3 4 C2.6875 7.75 2.6875 7.75 2 11 C-0.67927341 6.98108988 -0.15601248 4.75838077 0 0 Z " fill="#CC9AA0" transform="translate(582,307)"/>
<path d="M0 0 C3.36720387 1.39332574 4.9859524 2.9789286 7 6 C6.01 6 5.02 6 4 6 C0 1.54285714 0 1.54285714 0 0 Z " fill="#B96973" transform="translate(512,275)"/>
<path d="M0 0 C0.33 0 0.66 0 1 0 C1.1953125 6.0546875 1.1953125 6.0546875 1 8 C0.34 8.66 -0.32 9.32 -1 10 C-2.25 3.375 -2.25 3.375 0 0 Z " fill="#CB9095" transform="translate(544,221)"/>
</svg>
