<?xml version="1.0" encoding="UTF-8"?>
<svg version="1.1" xmlns="http://www.w3.org/2000/svg" width="200" height="60" viewBox="0 0 200 60">
  <!-- Logo Symbol - Stylized F with organic curves -->
  <g transform="translate(10, 10)">
    <!-- Main F shape with organic curves -->
    <path d="M0 0 C8 0 16 0 24 0 C24 4 24 8 24 12 C20 12 16 12 12 12 C12 16 12 20 12 24 C16 24 20 24 24 24 C24 28 24 32 24 36 C20 36 16 36 12 36 C12 40 12 44 12 48 C16 48 20 48 24 48 C24 52 24 56 24 60 C20 60 16 60 12 60 C12 56 12 52 12 48 C8 48 4 48 0 48 C0 44 0 40 0 36 C4 36 8 36 12 36 C12 32 12 28 12 24 C8 24 4 24 0 24 C0 20 0 16 0 12 C4 12 8 12 12 12 C12 8 12 4 12 0 C8 0 4 0 0 0 Z" 
          fill="none" 
          stroke="#C24C6E" 
          stroke-width="2"/>
    
    <!-- Organic decorative elements -->
    <circle cx="30" cy="15" r="3" fill="none" stroke="#E8C9B1" stroke-width="1.5"/>
    <circle cx="35" cy="25" r="2" fill="none" stroke="#8FB19C" stroke-width="1.5"/>
    <circle cx="32" cy="35" r="2.5" fill="none" stroke="#C24C6E" stroke-width="1.5"/>
    
    <!-- Connecting organic line -->
    <path d="M30 15 Q32 20 35 25 Q33 30 32 35" 
          fill="none" 
          stroke="#C24C6E" 
          stroke-width="1" 
          opacity="0.6"/>
  </g>
  
  <!-- Logo Text -->
  <text x="50" y="40" 
        font-family="Playfair Display, serif" 
        font-size="28" 
        font-weight="bold" 
        fill="#C24C6E">Femure</text>
  
  <!-- Tagline -->
  <text x="50" y="52" 
        font-family="Poppins, sans-serif" 
        font-size="10" 
        fill="#8FB19C" 
        opacity="0.8">Personalized Homeopathy</text>
</svg>