<?xml version="1.0" encoding="UTF-8"?>
<svg version="1.1" xmlns="http://www.w3.org/2000/svg" width="1024" height="1024">
<path d="M0 0 C12.76951022 0.16519418 27.7928615 4.85603735 37.6640625 13.26171875 C39.44662669 15.19219784 40.93250126 17.11887765 42.375 19.3125 C42.76945313 19.89257812 43.16390625 20.47265625 43.5703125 21.0703125 C46.11792822 25.42956606 46.8558551 29.73248996 47.6875 34.6875 C48.73496789 40.89906849 50.76919768 44.91239305 54.66015625 49.83984375 C60.32956621 58.01464217 61.51825583 68.44338997 61.4453125 78.1328125 C61.45390297 79.65365725 61.46438122 81.17449228 61.4765625 82.6953125 C61.49315788 85.05869037 61.50019072 87.41988032 61.47460938 89.78320312 C61.37277786 100.80877914 62.5596406 108.18053616 69.375 117.3125 C69.82601074 117.95993164 70.27702148 118.60736328 70.74169922 119.27441406 C71.86094533 120.84494683 73.05361734 122.36240172 74.25 123.875 C74.66636719 124.40528809 75.08273437 124.93557617 75.51171875 125.48193359 C79.12747279 130.06580304 82.83161852 134.57993015 86.5625 139.0703125 C90.36484095 143.77407049 90.36484095 143.77407049 90.4375 147.625 C88.79705931 153.31829416 85.19494517 155.67429444 80.203125 158.57421875 C74.9379386 161.3125 74.9379386 161.3125 72.375 161.3125 C72.05934242 165.71443582 72.05934242 165.71443582 73.875 169.625 C76.00456644 173.44047321 76.29577733 177.03455223 75.375 181.3125 C74.529375 181.93125 73.68375 182.55 72.8125 183.1875 C72.008125 183.88875 71.20375 184.59 70.375 185.3125 C70.43264541 187.8307532 70.43264541 187.8307532 70.9375 190.625 C71.69943474 195.85557904 71.69943474 195.85557904 70.16015625 198.0234375 C69.61230469 198.51070312 69.06445312 198.99796875 68.5 199.5 C65.34875439 202.47013954 64.97277124 204.93266966 64.73974609 209.21020508 C64.70563001 210.62379065 64.68827925 212.03790807 64.68994141 213.4519043 C64.64622238 219.69091045 63.10214636 223.5011026 58.8125 228 C49.74045665 234.85934985 37.58169223 234.24419391 26.83984375 232.85546875 C24.66274005 232.50153025 22.48686554 232.1399195 20.3125 231.76953125 C13.20992348 230.66447613 7.81385828 230.72159827 1.375 234.3125 C-6.22385481 240.10210366 -9.16958896 250.19840462 -10.625 259.3125 C-12.40332346 278.51252065 -9.12186996 296.98705044 -0.625 314.3125 C-0.18542969 315.21871094 0.25414062 316.12492187 0.70703125 317.05859375 C9.19911673 333.55148704 22.38444352 347.33385983 36.375 359.3125 C27.69325453 363.65337274 9.13317559 356.51098482 0.2109375 353.609375 C-1.06795213 353.17780512 -2.34661288 352.74555615 -3.625 352.3125 C-5.24535156 351.79429687 -5.24535156 351.79429687 -6.8984375 351.265625 C-36.86305416 340.84971291 -64.41110699 316.60349733 -78.68261719 288.31982422 C-85.9844454 272.76655179 -90.69003011 256.02735487 -90.86328125 238.80078125 C-90.8730751 237.99868225 -90.88286896 237.19658325 -90.89295959 236.37017822 C-91.21920853 202.75943275 -91.21920853 202.75943275 -86.625 188.3125 C-86.41069336 187.62865234 -86.19638672 186.94480469 -85.97558594 186.24023438 C-84.43435127 181.48865502 -82.61439057 176.89261965 -80.625 172.3125 C-80.18414062 171.2905957 -80.18414062 171.2905957 -79.734375 170.24804688 C-72.88484545 154.58990622 -63.97344517 140.34951047 -54.75 126 C-31.96402855 90.5173149 -14.35830837 55.24437981 -7.92919922 13.2421875 C-5.86759949 0.16443125 -5.86759949 0.16443125 0 0 Z " fill="#C96B7C" transform="translate(521.625,271.6875)"/>
<path d="M0 0 C1.02994835 -0.00701996 1.02994835 -0.00701996 2.08070374 -0.01418173 C4.38082206 -0.02614504 6.68034603 -0.01666969 8.98046875 -0.00723267 C10.62972359 -0.01129779 12.27897571 -0.01663934 13.92822266 -0.02316284 C18.40751817 -0.03684935 22.88660659 -0.03153231 27.36590576 -0.02202559 C32.05123456 -0.0144359 36.73654551 -0.02147267 41.421875 -0.02618408 C49.290397 -0.03164365 57.15883456 -0.02444474 65.02734375 -0.01016235 C74.12737292 0.00616455 83.22720045 0.00087618 92.32722473 -0.01564157 C100.13708727 -0.0292507 107.94688908 -0.0311789 115.75675964 -0.02332556 C120.42267157 -0.01864589 125.08848868 -0.01803226 129.75439453 -0.02793503 C134.14078216 -0.03659409 138.52690956 -0.03060226 142.91326904 -0.01325226 C144.52414518 -0.00928173 146.13504317 -0.01043113 147.74591064 -0.01704025 C149.94288303 -0.02522376 152.13901861 -0.01497384 154.3359375 0 C155.56594482 0.00113108 156.79595215 0.00226215 158.06323242 0.00342751 C161.42151769 0.41178146 162.83382102 0.96361381 165.16796875 3.38095093 C165.69921875 6.37704468 165.69921875 6.37704468 165.66796875 9.81845093 C165.6834375 11.51807983 165.6834375 11.51807983 165.69921875 13.25204468 C165.05717971 17.03346577 163.85931609 17.77512303 161.16796875 20.38095093 C159.99943811 23.64679298 159.99943811 23.64679298 159.23046875 27.31845093 C152.99263381 52.76608784 138.31797846 71.17876554 116.16796875 84.88095093 C113.14071926 86.71476552 110.52348612 88.26244514 107.16796875 89.38095093 C107.80605469 89.5021228 108.44414063 89.62329468 109.1015625 89.74813843 C109.92785156 89.91571655 110.75414062 90.08329468 111.60546875 90.25595093 C112.42917969 90.4183728 113.25289062 90.58079468 114.1015625 90.74813843 C114.78347656 90.95696655 115.46539063 91.16579468 116.16796875 91.38095093 C117.56731888 94.17965119 117.4206228 96.28593885 117.16796875 99.38095093 C116.10768127 101.04908752 116.10768127 101.04908752 114.16796875 102.38095093 C111.65644942 102.67170053 109.39364697 102.78081418 106.88256836 102.75326538 C105.77482307 102.75874138 105.77482307 102.75874138 104.6446991 102.764328 C102.20300319 102.77243595 99.76197035 102.75882314 97.3203125 102.74423218 C95.62545268 102.74371365 93.93059226 102.74423106 92.23573303 102.7457428 C88.68400086 102.74565307 85.13249564 102.73522103 81.58081055 102.71713257 C77.02187815 102.69442801 72.46327695 102.69390429 67.90430355 102.70065022 C64.40508567 102.70398682 60.90594369 102.69736625 57.40674019 102.68752098 C55.7253719 102.68366465 54.04399518 102.68252255 52.36262321 102.68410683 C50.01624239 102.68447649 47.67029109 102.67188596 45.32397461 102.65560913 C44.62522217 102.65808655 43.92646973 102.66056396 43.20654297 102.66311646 C38.39671324 102.60969542 38.39671324 102.60969542 36.16796875 100.38095093 C35.90234375 98.50595093 35.90234375 98.50595093 35.91796875 96.38095093 C35.91023437 95.32907593 35.91023437 95.32907593 35.90234375 94.25595093 C36.16796875 92.38095093 36.16796875 92.38095093 38.16796875 90.38095093 C40.49072052 89.98047648 42.82536232 89.64124053 45.16796875 89.38095093 C44.28496094 88.90786499 43.40195312 88.43477905 42.4921875 87.94735718 C26.12699833 79.00484381 11.20163399 66.97663168 2.16796875 50.38095093 C1.62269531 49.38450562 1.07742188 48.3880603 0.515625 47.36141968 C-2.897881 40.59282953 -4.76586817 34.23149115 -5.71972656 26.76107788 C-6.18517366 23.48280074 -6.48607029 21.72165013 -8.88671875 19.35751343 C-10.83203125 17.38095093 -10.83203125 17.38095093 -11.36328125 14.03329468 C-11.35296875 12.80739624 -11.34265625 11.5814978 -11.33203125 10.31845093 C-11.34234375 9.08997437 -11.35265625 7.8614978 -11.36328125 6.59579468 C-10.83203125 3.38095093 -10.83203125 3.38095093 -9.22583008 1.70383263 C-6.01676959 -0.06958598 -3.66240847 0.00336784 0 0 Z " fill="#C96C7C" transform="translate(536.83203125,537.6190490722656)"/>
<path d="M0 0 C7.61570795 -0.06997515 15.23138192 -0.12304972 22.84733963 -0.15543652 C26.38499683 -0.17099244 29.92243166 -0.19204237 33.45996094 -0.22631836 C37.54103546 -0.26560662 41.62188195 -0.27979226 45.703125 -0.29296875 C46.95361633 -0.30845261 48.20410767 -0.32393646 49.49249268 -0.33988953 C63.07918107 -0.34245434 75.45998505 2.12095622 85.359375 11.828125 C90.20785726 18.24659199 91.70240214 23.8800491 91.5625 31.875 C91.54606445 33.19890747 91.54606445 33.19890747 91.52929688 34.54956055 C91.23045633 43.53220938 88.87657357 49.46752563 82.4375 55.8125 C76.67256994 60.44640569 69.44125234 64 62 64 C79.83206407 93.85269832 79.83206407 93.85269832 103.12890625 119.3203125 C103.74636719 119.87460937 104.36382813 120.42890625 105 121 C105 121.33 105 121.66 105 122 C101.33348753 122.08796382 97.66725082 122.14071247 94 122.1875 C92.97003906 122.21263672 91.94007813 122.23777344 90.87890625 122.26367188 C82.01088392 122.3483982 75.81148971 121.06379747 69 115 C67.24584961 112.56835937 67.24584961 112.56835937 65.65234375 109.84375 C65.05236572 108.82998291 64.4523877 107.81621582 63.83422852 106.77172852 C62.8953479 105.1522229 62.8953479 105.1522229 61.9375 103.5 C60.61226605 101.24852903 59.28674091 98.99722943 57.9609375 96.74609375 C57.30061523 95.61800293 56.64029297 94.48991211 55.95996094 93.32763672 C54.11434316 90.19413269 52.24135097 87.07967559 50.3515625 83.97265625 C49.51637085 82.59787109 49.51637085 82.59787109 48.66430664 81.1953125 C47.61377788 79.46860893 46.56095817 77.74329666 45.50561523 76.01953125 C45.04098877 75.25125 44.5763623 74.48296875 44.09765625 73.69140625 C43.69039307 73.02310791 43.28312988 72.35480957 42.86352539 71.66625977 C42 70 42 70 42 68 C37.38 68 32.76 68 28 68 C28.04432418 73.83550748 28.11433737 79.66995059 28.20751953 85.50488281 C28.23563547 87.48721822 28.25689638 89.46966379 28.27099609 91.45214844 C28.29255592 94.31241875 28.33927215 97.1713777 28.390625 100.03125 C28.39185364 100.90865845 28.39308228 101.78606689 28.39434814 102.69006348 C28.58244946 110.70560058 31.24228285 115.65637713 36 122 C23.79 122 11.58 122 -1 122 C0.65 119.69 2.3 117.38 4 115 C4.92225358 112.23323926 5.13302548 110.55638153 5.15390015 107.70013428 C5.16250061 106.82264023 5.17110107 105.94514618 5.17996216 105.0410614 C5.18422211 104.081017 5.18848206 103.1209726 5.19287109 102.13183594 C5.20104858 101.118517 5.20922607 100.10519806 5.21765137 99.06117249 C5.24249716 95.70224601 5.25901923 92.34336176 5.2734375 88.984375 C5.28142302 87.26397884 5.28142302 87.26397884 5.28956985 85.50882721 C5.31629767 79.43834603 5.33567394 73.36788539 5.35009766 67.29736328 C5.36674604 61.02812846 5.41152718 54.75941924 5.4624691 48.49038315 C5.4961274 43.66906125 5.50767357 38.84786435 5.51332474 34.02643585 C5.52004086 31.71557853 5.53527215 29.40472954 5.55921555 27.09398651 C5.59083861 23.85746937 5.59090758 20.6223733 5.58349609 17.38574219 C5.6081041 15.95782097 5.6081041 15.95782097 5.63320923 14.50105286 C5.57292003 8.05956024 4.22296071 4.88696865 0 0 Z " fill="#C86C7C" transform="translate(680,674)"/>
<path d="M0 0 C9.9 0 19.8 0 30 0 C35.2014209 12.84432509 40.22729832 25.74873173 45.1875 38.6875 C52.01674602 56.50155437 58.97064383 74.26403438 66 92 C72.45986531 77.70491686 78.57285484 63.29747863 84.4375 48.75 C84.91042984 47.5770488 84.91042984 47.5770488 85.39291382 46.38040161 C86.6624622 43.23083979 87.93172165 40.0811618 89.20042419 36.93125916 C92.13001842 29.66370425 95.0936925 22.41047432 98.08377075 15.16760254 C98.6082667 13.89644787 99.131777 12.62488603 99.65426636 11.35290527 C100.36856033 9.61444383 101.08651764 7.87748888 101.8046875 6.140625 C102.40772705 4.67931152 102.40772705 4.67931152 103.02294922 3.18847656 C104 1 104 1 105 0 C106.99964982 -0.08758003 109.0023611 -0.10696576 111.00390625 -0.09765625 C112.21884766 -0.09443359 113.43378906 -0.09121094 114.68554688 -0.08789062 C115.96494141 -0.07951172 117.24433594 -0.07113281 118.5625 -0.0625 C119.84576172 -0.05798828 121.12902344 -0.05347656 122.45117188 -0.04882812 C125.63416022 -0.03699545 128.81705762 -0.02051068 132 0 C131.175 0.804375 130.35 1.60875 129.5 2.4375 C122.40101229 12.49565527 127.61879344 32.9526506 128.75 44.5 C128.9327589 46.40986746 129.11504161 48.31978053 129.296875 50.22973633 C129.57833788 53.17979379 129.86097045 56.12971431 130.14733887 59.07929993 C130.71939077 64.98211357 131.25938849 70.88661095 131.76763916 76.79525757 C132.09046159 80.53488889 132.42571579 84.27335065 132.76281738 88.01171875 C132.91935486 89.77769991 133.07074938 91.54414546 133.2166748 93.31103516 C134.2111178 106.15655243 134.2111178 106.15655243 139 118 C139.66 119.32 140.32 120.64 141 122 C129.45 122 117.9 122 106 122 C107.65 119.03 109.3 116.06 111 113 C114.98456044 105.03087912 111.5842882 89.6718942 110.72265625 81.21875 C110.58994036 79.86696047 110.45782775 78.51511159 110.32627869 77.16320801 C110.05236284 74.36291047 109.77389192 71.56312265 109.49145508 68.76367188 C109.13118503 65.1927449 108.77866316 61.62110929 108.42903996 58.04912567 C108.09177457 54.605433 107.75130247 51.16206011 107.41015625 47.71875 C107.22103416 45.80926575 107.22103416 45.80926575 107.02809143 43.86120605 C106.46019245 38.22075743 105.8731063 32.6019577 105 27 C104.78639328 27.5185556 104.57278656 28.03711121 104.35270691 28.57138062 C84.32886308 77.17549067 84.32886308 77.17549067 75 99 C74.56945312 100.0091748 74.13890625 101.01834961 73.6953125 102.05810547 C71.69384698 106.74867019 69.69021214 111.43831039 67.6796875 116.125 C67.37788574 116.82882812 67.07608398 117.53265625 66.76513672 118.2578125 C66.21054653 119.52059349 65.61679593 120.76640814 65 122 C62.36 122 59.72 122 57 122 C54.03209856 116.21225946 51.38185415 110.35956225 48.875 104.359375 C48.49115646 103.44693527 48.10731293 102.53449554 47.71183777 101.59440613 C46.89428206 99.65039502 46.07787769 97.70589936 45.26254272 95.76095581 C43.56082998 91.70265205 41.85232374 87.64722126 40.14408875 83.59165955 C38.87629292 80.58167341 37.60927403 77.57136102 36.34228516 74.56103516 C33.30481268 67.3471341 30.2564595 60.13806136 27.1875 52.9375 C26.73955078 51.87821289 26.29160156 50.81892578 25.83007812 49.72753906 C22.81826236 42.67787926 19.49594445 35.82196289 16 29 C14.8895428 32.7483888 14.60291834 36.54466764 14.28125 40.421875 C14.21867508 41.15037659 14.15610016 41.87887817 14.09162903 42.62945557 C13.88988435 45.00261543 13.69419475 47.37621099 13.5 49.75 C13.43307953 50.56033691 13.36615906 51.37067383 13.29721069 52.20556641 C12.25542349 64.89959366 11.37948299 77.58065713 11.07177734 90.31689453 C10.99796461 93.07608481 10.88377601 95.83206207 10.76953125 98.58984375 C10.71904441 100.37233191 10.67076357 102.15488432 10.625 103.9375 C10.58673096 104.72447266 10.54846191 105.51144531 10.5090332 106.32226562 C10.40794303 113.38185576 12.11184381 115.00131886 16 122 C7.09 122 -1.82 122 -11 122 C-9.35 120.02 -7.7 118.04 -6 116 C-4.02945943 111.47324016 -3.4953942 106.90784868 -3.03857422 102.03295898 C-2.9602536 101.25626862 -2.88193298 100.47957825 -2.80123901 99.67935181 C-2.54515033 97.11892276 -2.29946157 94.5576275 -2.0546875 91.99609375 C-1.87850576 90.1940654 -1.70199652 88.39206903 -1.525177 86.59010315 C-1.15572941 82.80701394 -0.79168114 79.02345113 -0.43115234 75.23950195 C0.02565131 70.45161985 0.4977467 65.66539475 0.97441292 60.87945461 C1.34364625 57.15028866 1.70328831 53.42023997 2.06042099 49.68989754 C2.23030569 47.9290241 2.40322542 46.16844014 2.57956314 44.40820122 C3.53510313 34.82205798 4.19535848 25.26021758 4.35498047 15.62524414 C4.3821773 14.75112853 4.40937412 13.87701292 4.4373951 12.97640896 C4.4434744 11.73905294 4.4434744 11.73905294 4.44967651 10.47669983 C4.45993299 9.75560563 4.47018948 9.03451143 4.48075676 8.2915659 C3.9696985 5.14845725 3.9696985 5.14845725 0 0 Z " fill="#C86B7C" transform="translate(368,674)"/>
<path d="M0 0 C21.30198118 0.10241337 41.29920241 14.64878143 56.0625 28.6875 C73.58229075 46.64734829 82.38365084 69.74385818 82.3046875 94.65185547 C82.14815033 102.27551648 81.06811025 109.56530726 79.43554688 117.00292969 C79.02757029 118.87358466 78.66069599 120.75307071 78.296875 122.6328125 C72.9842005 147.16486826 60.96124807 169.91340491 49.52124023 192.05273438 C48.33007342 194.36051255 47.15372584 196.67337281 46 199 C44.80127288 195.40381863 45.29514415 193.98565094 46.22265625 190.34765625 C46.65553955 188.6140686 46.65553955 188.6140686 47.09716797 186.84545898 C47.57500732 184.97289429 47.57500732 184.97289429 48.0625 183.0625 C48.71787613 180.43106805 49.36530154 177.79770792 50.01171875 175.1640625 C50.17762512 174.49013962 50.34353149 173.81621674 50.51446533 173.12187195 C52.23975533 166.08311824 53.83442753 159.01914054 55.375 151.9375 C55.62515869 150.81674072 55.87531738 149.69598145 56.13305664 148.54125977 C63.37893564 114.89410577 59.06965303 80.4929969 41 51 C40.34 50.34 39.68 49.68 39 49 C39.44730469 49.94617188 39.89460938 50.89234375 40.35546875 51.8671875 C43.69483062 59.099847 46.6352594 66.32942687 48.8125 74 C49.00674561 74.66112793 49.20099121 75.32225586 49.40112305 76.00341797 C53.30063513 90.44719702 53.26698828 105.16892188 53.125 120 C53.11493715 121.85416176 53.10581721 123.70832889 53.09765625 125.5625 C53.07593439 130.04180273 53.0415922 134.52083953 53 139 C52.34 139 51.68 139 51 139 C42.08407485 129.4485201 35.00048581 118.54968159 29 107 C28.56816406 106.22269531 28.13632812 105.44539063 27.69140625 104.64453125 C23.66602169 97.15806838 21.26512723 89.16083366 19 81 C18.7642627 80.1853125 18.52852539 79.370625 18.28564453 78.53125 C15.39398107 67.90040959 14.19360317 56.96852982 12.77587891 46.06494141 C10.83033357 31.22507047 8.23380247 17.10136448 0.91796875 3.8203125 C0 2 0 2 0 0 Z " fill="#C96C7D" transform="translate(420,185)"/>
<path d="M0 0 C22.24237904 -1.39256634 46.39849433 7.30693649 63.36328125 21.77734375 C66.33719645 24.42461505 69.1679307 27.20225881 72 30 C72.66515625 30.59296875 73.3303125 31.1859375 74.015625 31.796875 C87.38664981 43.96330298 95.44834496 64.4618988 96.36962891 82.32055664 C96.51897663 87.17181993 96.51762384 92.01863973 96.46655273 96.87158203 C96.43760472 99.86417442 96.44598981 102.85498335 96.45898438 105.84765625 C96.44628866 117.86313144 95.44571904 129.23841539 93 141 C92.78641846 142.04333496 92.57283691 143.08666992 92.3527832 144.16162109 C91.76355422 146.87278577 91.11904547 149.56065173 90.4375 152.25 C90.19281982 153.22380615 89.94813965 154.1976123 89.69604492 155.20092773 C87.42110958 163.93801804 84.67284578 172.50326945 81.8125 181.0625 C81.59649139 181.70924683 81.38048279 182.35599365 81.15792847 183.02233887 C78.99873033 189.45470857 76.81743471 195.82366919 74 202 C72.56586014 198.0779256 73.30889816 194.42269395 73.92578125 190.41015625 C74.03343307 189.66978622 74.1410849 188.9294162 74.2519989 188.16661072 C74.59827928 185.79744583 74.95525921 183.43003433 75.3125 181.0625 C75.54171326 179.50465978 75.77023561 177.94671774 75.99804688 176.38867188 C76.99724899 169.58512904 78.03206331 162.78834822 79.10546875 155.99609375 C84.65579434 119.65690229 81.3766797 83.9264484 59.20751953 53.61499023 C55.02719257 48.09345494 50.50870514 43.23154725 45 39 C45 41.05099391 46.91855803 42.4645506 48.14941406 43.99780273 C63.35728408 63.02413469 75.42060163 88.18450408 75 113 C70.10756084 110.35377504 65.88634069 107.51222469 61.6875 103.875 C61.1291748 103.39490479 60.57084961 102.91480957 59.99560547 102.42016602 C40.03200714 85.06955936 28.39181857 64.00619038 20.42822266 39.08325195 C16.17982602 25.79293501 11.46856742 13.73268826 1.46875 3.63671875 C0 2 0 2 0 0 Z " fill="#C96C7C" transform="translate(355,258)"/>
<path d="M0 0 C11.55 0 23.1 0 35 0 C33.02 2.64 31.04 5.28 29 8 C27.53181876 10.93636248 27.85643907 13.5510347 27.83886719 16.82958984 C27.83390228 17.53237061 27.82893738 18.23515137 27.82382202 18.95922852 C27.80917689 21.29314143 27.80239029 23.6269861 27.796875 25.9609375 C27.79112019 27.58842978 27.7853625 29.21592205 27.77960205 30.84341431 C27.76908178 34.26491613 27.76324758 37.68639443 27.75976562 41.10791016 C27.75431517 45.46302648 27.73036638 49.8178247 27.70179367 54.17284203 C27.68302645 57.54119726 27.677954 60.90947855 27.67642975 64.27788162 C27.67342824 65.88122906 27.66548574 67.48457598 27.65224457 69.08787155 C27.54966693 82.47755365 28.09593994 96.82826264 38 107 C48.42154671 113.28668202 60.7145977 113.60926238 72.51953125 111.31640625 C79.2439217 109.04986345 84.69858807 105.87080199 88.37805176 99.68222046 C92.75150303 90.29694082 92.69899989 81.66945498 92.59375 71.5390625 C92.59203521 69.7769682 92.59210831 68.01487135 92.59387207 66.2527771 C92.59222891 62.5831418 92.57370737 58.91412489 92.54199219 55.24462891 C92.50214113 50.55058363 92.4979736 45.85733909 92.50545502 41.16315651 C92.50852772 37.53421745 92.49639642 33.90545719 92.47932434 30.27656174 C92.47231761 28.54547623 92.46916697 26.8143705 92.47001648 25.08327103 C92.46821235 22.66663312 92.4467847 20.25094545 92.41992188 17.83447266 C92.42285248 17.12683777 92.42578308 16.41920288 92.42880249 15.69012451 C92.31512676 9.03933776 89.91839724 5.22452965 86 0 C94.58 0 103.16 0 112 0 C110.02 2.64 108.04 5.28 106 8 C104.81768324 11.54695028 104.85360195 14.39762526 104.82641602 18.14257812 C104.8163855 19.22863846 104.8163855 19.22863846 104.80615234 20.3366394 C104.79210515 21.90969666 104.78021003 23.48277427 104.77020454 25.05586243 C104.75375406 27.55436472 104.73050934 30.05271903 104.70530701 32.55114746 C104.63468054 39.65544189 104.57473366 46.7597999 104.52319336 53.86425781 C104.49117387 58.2120501 104.44983238 62.5596767 104.40299797 66.90733337 C104.38710227 68.55611653 104.37472424 70.20493785 104.36609077 71.85377502 C104.22293626 98.82667739 104.22293626 98.82667739 94.625 109.6875 C93.75875 110.450625 92.8925 111.21375 92 112 C91.28263672 112.72123047 91.28263672 112.72123047 90.55078125 113.45703125 C79.62129859 123.91016842 64.45328503 125.60015736 50.0625 125.3125 C35.7628473 124.67030003 23.80900685 118.73572045 13.98046875 108.4375 C7.62870704 100.61994713 5.84579906 92.92272722 5.87402344 83.04785156 C5.8721553 82.26178528 5.87028717 81.47571899 5.86836243 80.66583252 C5.86436926 78.96401547 5.86228459 77.26219309 5.86190033 75.5603714 C5.85846892 71.93272444 5.83708593 68.30525416 5.81666946 64.67766953 C5.77874146 57.93124776 5.74738195 51.1850173 5.74951172 44.43847656 C5.75030133 39.73808609 5.72683121 35.03834727 5.6876297 30.33812714 C5.6772079 28.55371789 5.67561737 26.76923309 5.68328094 24.98480988 C5.69296797 22.47907232 5.67160107 19.9752882 5.64355469 17.46972656 C5.65375137 16.74317871 5.66394806 16.01663086 5.67445374 15.26806641 C5.53987517 8.51005858 3.72966105 6.71338989 0 0 Z " fill="#C86A7B" transform="translate(538,674)"/>
<path d="M0 0 C26.73 0 53.46 0 81 0 C81 6.27 81 12.54 81 19 C78.69 17.02 76.38 15.04 74 13 C71.56195583 11.75436387 71.56195583 11.75436387 69.25 11.1875 C68.51265625 10.97480469 67.7753125 10.76210938 67.015625 10.54296875 C66.35046875 10.36378906 65.6853125 10.18460938 65 10 C64.01 9.67 63.02 9.34 62 9 C59.48966924 8.8470486 57.00093088 8.74297283 54.48828125 8.68359375 C53.84258179 8.66494263 53.19688232 8.6462915 52.53161621 8.6270752 C50.12537999 8.55890627 47.71892417 8.49867543 45.3125 8.4375 C37.2378125 8.2209375 37.2378125 8.2209375 29 8 C29 23.51 29 39.02 29 55 C33.24875 54.9175 37.4975 54.835 41.875 54.75 C43.1935498 54.73420898 44.51209961 54.71841797 45.87060547 54.70214844 C53.06893197 54.49645103 59.76364463 53.8956116 66 50 C67.01605334 48.67885906 68.01897881 47.3473586 69 46 C69.66 46 70.32 46 71 46 C71 55.9 71 65.8 71 76 C68.69 74.02 66.38 72.04 64 70 C53.57586205 62.01555391 42.04201867 63.62104851 29 63 C29 79.83 29 96.66 29 114 C34.07375 113.87625 39.1475 113.7525 44.375 113.625 C45.95458496 113.59100098 47.53416992 113.55700195 49.16162109 113.52197266 C64.86581477 113.21987237 64.86581477 113.21987237 79 107 C80.62447956 105.07887635 81.74901227 103.20173841 83 101 C83.33 101 83.66 101 84 101 C84 107.93 84 114.86 84 122 C56.28 122 28.56 122 0 122 C1.65 119.69 3.3 117.38 5 115 C5.9222137 112.23335889 6.12923719 110.57857562 6.14044189 107.72463989 C6.14615204 106.85266968 6.15186218 105.98069946 6.15774536 105.08230591 C6.15886322 104.12847015 6.15998108 103.1746344 6.16113281 102.19189453 C6.16609772 101.18511658 6.17106262 100.17833862 6.17617798 99.14105225 C6.19080312 95.80496542 6.19760188 92.46892614 6.203125 89.1328125 C6.20887575 86.81737262 6.21463349 84.50193276 6.22039795 82.18649292 C6.23090866 77.32924172 6.23675101 72.47200707 6.24023438 67.61474609 C6.24572206 61.38805809 6.26975582 55.16158843 6.29820633 48.93496895 C6.31682029 44.15147256 6.32203763 39.36802891 6.32357025 34.58449936 C6.32659964 32.28876424 6.33463775 29.99303011 6.34775543 27.69733047 C6.36479113 24.48701554 6.36294165 21.2772362 6.35644531 18.06689453 C6.3656601 17.11710724 6.37487488 16.16731995 6.3843689 15.18875122 C6.34019648 8.227882 5.0088124 5.0088124 0 0 Z " fill="#C86B7C" transform="translate(247,674)"/>
<path d="M0 0 C25.74 0 51.48 0 78 0 C78 6.27 78 12.54 78 19 C76.824375 18.071875 75.64875 17.14375 74.4375 16.1875 C67.31167563 10.8399787 60.68413147 8.93765951 51.828125 8.68359375 C50.5793457 8.64548584 49.33056641 8.60737793 48.04394531 8.56811523 C45.67094238 8.50346069 45.67094238 8.50346069 43.25 8.4375 C38.2175 8.293125 33.185 8.14875 28 8 C28 23.51 28 39.02 28 55 C32.08375 54.9175 36.1675 54.835 40.375 54.75 C42.27451416 54.72631348 42.27451416 54.72631348 44.21240234 54.70214844 C53.57347575 54.42411124 60.47081007 52.64689245 68 47 C68 55.58 68 64.16 68 73 C65.39583333 71.2421875 62.79166667 69.484375 60.1875 67.7265625 C50.13653859 62.28229174 39.31490509 63.538805 28 63 C28 79.83 28 96.66 28 114 C33.259375 113.87625 38.51875 113.7525 43.9375 113.625 C45.578396 113.59100098 47.21929199 113.55700195 48.90991211 113.52197266 C63.77153059 113.18381741 63.77153059 113.18381741 77 107 C78.64974436 104.73038128 79.77554235 102.54687192 81 100 C81.33 100 81.66 100 82 100 C82 107.26 82 114.52 82 122 C54.94 122 27.88 122 0 122 C1.65 119.03 3.3 116.06 5 113 C5.46565641 109.28940886 5.6864404 106.05495302 5.64697266 102.35888672 C5.65573425 101.33493805 5.66449585 100.31098938 5.67352295 99.25601196 C5.69539489 95.89679653 5.68100893 92.53891453 5.6640625 89.1796875 C5.6674336 86.83277129 5.67228866 84.48585679 5.67855835 82.13894653 C5.68591274 77.2316213 5.67526785 72.32475248 5.65185547 67.41748047 C5.62333782 61.13483899 5.63980086 54.85326413 5.66971779 48.57066154 C5.68780219 43.72868845 5.68202785 38.88696749 5.66907883 34.04498672 C5.66574965 31.72858681 5.66981463 29.41216381 5.68147659 27.09579086 C5.69420689 23.85735312 5.67477699 20.62063425 5.64697266 17.38232422 C5.66215439 15.9545163 5.66215439 15.9545163 5.67764282 14.49786377 C5.6635437 13.60934723 5.64944458 12.72083069 5.63491821 11.8053894 C5.63303308 11.04185087 5.63114796 10.27831234 5.6292057 9.49163628 C4.89791592 5.95844635 4.89791592 5.95844635 0 0 Z " fill="#C86B7B" transform="translate(812,674)"/>
<path d="M0 0 C25.74 0 51.48 0 78 0 C78 5.94 78 11.88 78 18 C75.91666667 16.50260417 73.83333333 15.00520833 71.75 13.5078125 C65.8720286 10.2849475 59.6011358 9.69759299 53 9.5859375 C52.35933594 9.56829346 51.71867187 9.55064941 51.05859375 9.5324707 C48.70596635 9.47025107 46.35295055 9.42348365 44 9.375 C38.72 9.25125 33.44 9.1275 28 9 C28 24.51 28 40.02 28 56 C49.49941782 55.25351109 49.49941782 55.25351109 68 47 C68 55.91 68 64.82 68 74 C65.36 72.02 62.72 70.04 60 68 C52.95848851 64.96185015 46.55017961 64.48060334 38.9375 64.3125 C37.88111328 64.27833984 36.82472656 64.24417969 35.73632812 64.20898438 C33.15765843 64.12730705 30.57929438 64.05790057 28 64 C28.06702641 70.88715038 28.15684373 77.77373428 28.26245117 84.66040039 C28.29568906 87.00277978 28.3237245 89.34523904 28.34643555 91.68774414 C28.38000168 95.05649833 28.43232019 98.42452131 28.48828125 101.79296875 C28.49467117 102.83897751 28.5010611 103.88498627 28.50764465 104.96269226 C28.61279291 110.17193098 28.7272471 113.70944435 32 118 C32 118.66 32 119.32 32 120 C32.99 120.33 33.98 120.66 35 121 C35 121.33 35 121.66 35 122 C23.45 122 11.9 122 0 122 C1.32 120.02 2.64 118.04 4 116 C4.923969 113.228093 5.13115967 111.55492139 5.14717102 108.69340515 C5.15432632 107.81446594 5.16148163 106.93552673 5.16885376 106.029953 C5.17154266 105.06833755 5.17423157 104.10672211 5.17700195 103.1159668 C5.18357315 102.10104156 5.19014435 101.08611633 5.19691467 100.04043579 C5.21664996 96.67669605 5.22831014 93.31300094 5.23828125 89.94921875 C5.24439454 88.22695037 5.24439454 88.22695037 5.25063133 86.46988869 C5.27149193 80.3940715 5.28579435 74.3182769 5.29516602 68.24243164 C5.3062371 61.96421203 5.34064548 55.6863462 5.38033772 49.40825176 C5.40646848 44.58268062 5.41485467 39.75719428 5.41844749 34.93155861 C5.42332171 32.61710022 5.43495931 30.30264583 5.45348549 27.98825645 C5.47780335 24.74929021 5.47692512 21.51124617 5.4699707 18.2722168 C5.48278076 17.31667404 5.49559082 16.36113129 5.50878906 15.37663269 C5.46328988 9.56197582 4.69934995 6.51788628 1 2 C0.67 1.34 0.34 0.68 0 0 Z " fill="#C86B7C" transform="translate(140,674)"/>
<path d="M0 0 C16.5 0 33 0 50 0 C48.68 1.32 47.36 2.64 46 4 C46 5.32 46 6.64 46 8 C40.06 8 34.12 8 28 8 C28 25.16 28 42.32 28 60 C35.92 60 43.84 60 52 60 C52 60.33 52 60.66 52 61 C46.39 61.66 40.78 62.32 35 63 C35 63.66 35 64.32 35 65 C35.99 64.67 36.98 64.34 38 64 C38 64.66 38 65.32 38 66 C39.32 66.66 40.64 67.32 42 68 C37.38 68 32.76 68 28 68 C28.04432418 73.83550748 28.11433737 79.66995059 28.20751953 85.50488281 C28.23563547 87.48721822 28.25689638 89.46966379 28.27099609 91.45214844 C28.29255592 94.31241875 28.33927215 97.1713777 28.390625 100.03125 C28.39185364 100.90865845 28.39308228 101.78606689 28.39434814 102.69006348 C28.58244946 110.70560058 31.24228285 115.65637713 36 122 C23.79 122 11.58 122 -1 122 C0.65 119.69 2.3 117.38 4 115 C4.92225358 112.23323926 5.13302548 110.55638153 5.15390015 107.70013428 C5.16250061 106.82264023 5.17110107 105.94514618 5.17996216 105.0410614 C5.18422211 104.081017 5.18848206 103.1209726 5.19287109 102.13183594 C5.20104858 101.118517 5.20922607 100.10519806 5.21765137 99.06117249 C5.24249716 95.70224601 5.25901923 92.34336176 5.2734375 88.984375 C5.28142302 87.26397884 5.28142302 87.26397884 5.28956985 85.50882721 C5.31629767 79.43834603 5.33567394 73.36788539 5.35009766 67.29736328 C5.36674604 61.02812846 5.41152718 54.75941924 5.4624691 48.49038315 C5.4961274 43.66906125 5.50767357 38.84786435 5.51332474 34.02643585 C5.52004086 31.71557853 5.53527215 29.40472954 5.55921555 27.09398651 C5.59083861 23.85746937 5.59090758 20.6223733 5.58349609 17.38574219 C5.6081041 15.95782097 5.6081041 15.95782097 5.63320923 14.50105286 C5.62489075 13.61227951 5.61657227 12.72350616 5.60800171 11.80780029 C5.61296693 10.66186464 5.61296693 10.66186464 5.61803246 9.49277878 C4.90377877 5.9567229 4.90377877 5.9567229 0 0 Z " fill="#C86B7B" transform="translate(680,674)"/>
<path d="M0 0 C5.91857636 2.91775431 11.94224441 7.13241514 14.4375 13.4375 C14.86878458 17.89410729 14.92539854 20.37299409 13.0625 24.4375 C10.04489332 27.88619335 6.74916803 30.49894884 3.0703125 33.21484375 C-3.74640928 38.96961332 -7.92315086 46.06611639 -12.3125 53.75 C-13.45046222 55.72679566 -14.59096443 57.702132 -15.734375 59.67578125 C-16.2303418 60.54243408 -16.72630859 61.40908691 -17.23730469 62.30200195 C-18.5625 64.4375 -18.5625 64.4375 -20.5625 66.4375 C-23.43138581 66.61282289 -26.20242645 66.66887614 -29.0703125 66.6328125 C-30.33124222 66.62856766 -30.33124222 66.62856766 -31.61764526 66.62423706 C-34.30774046 66.6130243 -36.9975051 66.58791803 -39.6875 66.5625 C-41.50910978 66.5524716 -43.33072477 66.54334551 -45.15234375 66.53515625 C-49.62252358 66.51308142 -54.09245571 66.47854434 -58.5625 66.4375 C-55.4727411 58.38430672 -49.98430117 51.87411477 -44.1875 45.5625 C-34.2990829 34.76735953 -25.91791491 24.13994847 -23.078125 9.44140625 C-21.98808321 5.20510749 -19.63381602 2.35577088 -16.375 -0.4375 C-10.7747409 -2.67760364 -5.55540504 -2.22599995 0 0 Z " fill="#C96C7C" transform="translate(687.5625,465.5625)"/>
<path d="M0 0 C14.78733938 7.40285437 22.0725693 19.49817169 27.9453125 34.3984375 C30.12220972 42.15555011 29.15482569 51.02647721 29 59 C23.69777622 57.72692456 19.4755206 55.81076556 14.9375 52.75 C14.29409668 52.31743896 13.65069336 51.88487793 12.98779297 51.43920898 C2.51792257 44.12819692 -6.01653903 34.57064473 -13.90625 24.60546875 C-18.05607802 19.44141037 -22.46887352 14.41746623 -27.26171875 9.83984375 C-29 8 -29 8 -29 6 C-29.53625 5.773125 -30.0725 5.54625 -30.625 5.3125 C-32.72586819 4.15149389 -34.3070298 2.97921002 -36.125 1.4375 C-38.72238036 -0.96006418 -38.72238036 -0.96006418 -41 -2 C-41 -2.66 -41 -3.32 -41 -4 C-28.20131953 -8.26622682 -12.05522678 -5.33237915 0 0 Z " fill="#C86C7C" transform="translate(393,366)"/>
<path d="M0 0 C26 0 26 0 34 6 C39.68587411 12.76158002 40.4847955 20.43326053 40.3125 28.97265625 C39.50193749 36.82498058 35.94148221 43.77149566 30 49 C21.54421836 54.24841619 8.66187866 52 0 52 C0 34.84 0 17.68 0 0 Z " fill="#FCF6EF" transform="translate(708,682)"/>
<path d="M0 0 C35.64 0 71.28 0 108 0 C108 0.33 108 0.66 108 1 C103.71 1.33 99.42 1.66 95 2 C95 3.65 95 5.3 95 7 C93.02 6.34 91.04 5.68 89 5 C89 5.66 89 6.32 89 7 C88.01 7 87.02 7 86 7 C86 7.66 86 8.32 86 9 C86.99 9 87.98 9 89 9 C89.59732819 11.76264289 90 14.16032769 90 17 C88.02 17 86.04 17 84 17 C83 15 83 15 82 12 C81.01 11.01 81.01 11.01 80 10 C79.87625 9.34 79.7525 8.68 79.625 8 C79.17876824 5.79734983 79.17876824 5.79734983 76.9375 4.75 C76.298125 4.5025 75.65875 4.255 75 4 C78.01844907 2.74231289 80.8078874 1.79802815 84 1 C56.28 1 28.56 1 0 1 C0 0.67 0 0.34 0 0 Z " fill="#C56375" transform="translate(585,539)"/>
<path d="M0 0 C0.33 0 0.66 0 1 0 C1 4.95 1 9.9 1 15 C-26.39 15 -53.78 15 -82 15 C-82 14.67 -82 14.34 -82 14 C-81.01257813 13.97421875 -80.02515625 13.9484375 -79.0078125 13.921875 C-77.72648438 13.86515625 -76.44515625 13.8084375 -75.125 13.75 C-73.84882813 13.70359375 -72.57265625 13.6571875 -71.2578125 13.609375 C-67.94077674 13.35974104 -67.94077674 13.35974104 -66.4921875 11.078125 C-65.7549309 8.9557131 -65.7549309 8.9557131 -67 7 C-63.06171464 4.68336156 -59.30764815 2.56641751 -55 1 C-55 2.98 -55 4.96 -55 7 C-48.07 7.33 -41.14 7.66 -34 8 C-34 8.33 -34 8.66 -34 9 C-39.2754623 9.93785996 -44.19254645 9.99644332 -49.546875 9.7421875 C-52.41253806 9.78321098 -52.41253806 9.78321098 -55 13 C-36.85 13.33 -18.7 13.66 0 14 C0 12.68 0 11.36 0 10 C-0.99 9.505 -0.99 9.505 -2 9 C-1.34 9 -0.68 9 0 9 C0 6.03 0 3.06 0 0 Z " fill="#C46274" transform="translate(329,781)"/>
<path d="M0 0 C0 5.94 0 11.88 0 18 C-1.155 17.071875 -2.31 16.14375 -3.5 15.1875 C-8.62901499 11.69418049 -13.65370529 10.80064107 -19.67773438 9.93823242 C-21.46032731 9.67830649 -23.23193866 9.34519293 -25 9 C-25.33 8.34 -25.66 7.68 -26 7 C-25.00419922 7.03480469 -25.00419922 7.03480469 -23.98828125 7.0703125 C-17.25021758 7.27602686 -17.25021758 7.27602686 -11 5 C-10.34 4.34 -9.68 3.68 -9 3 C-8.67 3.66 -8.34 4.32 -8 5 C-7.67 4.34 -7.34 3.68 -7 3 C-8.45823212 2.9729957 -9.91660675 2.95360213 -11.375 2.9375 C-12.59316406 2.92009766 -12.59316406 2.92009766 -13.8359375 2.90234375 C-16.04937142 2.85533666 -16.04937142 2.85533666 -18 4 C-18 3.01 -18 2.02 -18 1 C-16.12528812 0.83012319 -14.25021305 0.66425224 -12.375 0.5 C-11.33085937 0.4071875 -10.28671875 0.314375 -9.2109375 0.21875 C-6.14686157 0.01000517 -3.07117822 0 0 0 Z " fill="#C56577" transform="translate(218,674)"/>
<path d="M0 0 C1.48558914 0.00666183 1.48558914 0.00666183 3.00119019 0.01345825 C4.68270676 0.01368484 4.68270676 0.01368484 6.39819336 0.01391602 C7.61280243 0.02423859 8.8274115 0.03456116 10.0788269 0.04519653 C11.31897552 0.04802643 12.55912415 0.05085632 13.83685303 0.05377197 C17.13476073 0.06308729 20.43247413 0.08106014 23.73031616 0.10317993 C27.0951601 0.12363429 30.46003247 0.1327728 33.82492065 0.14285278 C40.42786163 0.16494385 47.03067212 0.19844421 53.6335144 0.24050903 C53.6335144 0.57050903 53.6335144 0.90050903 53.6335144 1.24050903 C36.4735144 1.24050903 19.3135144 1.24050903 1.6335144 1.24050903 C1.9635144 2.89050903 2.2935144 4.54050903 2.6335144 6.24050903 C3.9535144 6.57050903 5.2735144 6.90050903 6.6335144 7.24050903 C6.6335144 8.23050903 6.6335144 9.22050903 6.6335144 10.24050903 C4.6535144 10.90050903 2.6735144 11.56050903 0.6335144 12.24050903 C0.6335144 13.89050903 0.6335144 15.54050903 0.6335144 17.24050903 C-0.6864856 17.24050903 -2.0064856 17.24050903 -3.3664856 17.24050903 C-5.29990506 15.30708957 -4.54097692 11.86571782 -4.5539856 9.30300903 C-4.56816528 8.0358606 -4.58234497 6.76871216 -4.59695435 5.46316528 C-4.32622789 1.67758343 -3.90527276 0.39689799 0 0 Z " fill="#C86A7B" transform="translate(530.3664855957031,538.7594909667969)"/>
<path d="M0 0 C10.23 0 20.46 0 31 0 C31 0.66 31 1.32 31 2 C21.43 2 11.86 2 2 2 C2 16.52 2 31.04 2 46 C2.99 46.33 3.98 46.66 5 47 C3.35 47 1.7 47 0 47 C0 31.49 0 15.98 0 0 Z " fill="#F1DFDE" transform="translate(840,682)"/>
<path d="M0 0 C15 0 15 0 18 2 C12.72 2 7.44 2 2 2 C2 18.5 2 35 2 52 C1.34 52 0.68 52 0 52 C0 34.84 0 17.68 0 0 Z " fill="#F3E2E0" transform="translate(708,682)"/>
<path d="M0 0 C4.62 0 9.24 0 14 0 C14.33 1.32 14.66 2.64 15 4 C14.34 3.67 13.68 3.34 13 3 C9.37 2.67 5.74 2.34 2 2 C2 15.53 2 29.06 2 43 C1.34 42.67 0.68 42.34 0 42 C0 28.14 0 14.28 0 0 Z " fill="#F2E0DE" transform="translate(708,742)"/>
<path d="M0 0 C10.10693486 4.6972759 19.50892783 15.85807328 24 26 C18.86645815 24.71661454 17.11599288 23.18257826 14 19 C13.01826889 17.70569903 12.03649483 16.41143065 11.0546875 15.1171875 C9.99395387 13.70375335 8.93407526 12.28967718 7.875 10.875 C7.33746094 10.15957031 6.79992187 9.44414062 6.24609375 8.70703125 C5.72917969 8.01738281 5.21226562 7.32773437 4.6796875 6.6171875 C3.97948486 5.68302002 3.97948486 5.68302002 3.26513672 4.72998047 C2.13422579 3.1835438 1.06271436 1.59407154 0 0 Z " fill="#F8F1EB" transform="translate(397,295)"/>
<path d="M0 0 C0.99 0 1.98 0 3 0 C3.33 0.66 3.66 1.32 4 2 C4.99 1.67 5.98 1.34 7 1 C7 2.32 7 3.64 7 5 C9.31 5.33 11.62 5.66 14 6 C13.67 6.66 13.34 7.32 13 8 C3.40432207 8.23889655 -5.53149174 7.78831859 -15 6 C-11.29255059 3.89234041 -8.21426158 3.65721281 -4.0234375 3.44140625 C-1.6043485 3.1591215 -1.6043485 3.1591215 0 0 Z " fill="#CB7483" transform="translate(554,497)"/>
<path d="M0 0 C0.33 0 0.66 0 1 0 C1.33 14.52 1.66 29.04 2 44 C8.6 44 15.2 44 22 44 C18 46 18 46 0 46 C0 30.82 0 15.64 0 0 Z " fill="#F7EEE8" transform="translate(168,684)"/>
<path d="M0 0 C-0.33 1.65 -0.66 3.3 -1 5 C7.25 5 15.5 5 24 5 C24 5.33 24 5.66 24 6 C11.79 6 -0.42 6 -13 6 C-6.70909091 -1.86363636 -6.70909091 -1.86363636 0 0 Z " fill="#C36173" transform="translate(692,790)"/>
<path d="M0 0 C0.99 0.33 1.98 0.66 3 1 C3 4.63 3 8.26 3 12 C2.01 12.33 1.02 12.66 0 13 C-0.99 11.02 -1.98 9.04 -3 7 C-5.62901288 8.52206009 -7.84365964 9.84365964 -10 12 C-10 8.37 -10 4.74 -10 1 C-9.01 1.99 -8.02 2.98 -7 4 C-4.97954558 3.39816251 -2.97888961 2.72693904 -1 2 C-0.67 1.34 -0.34 0.68 0 0 Z " fill="#CD7484" transform="translate(375,774)"/>
<path d="M0 0 C1.48558914 0.00666183 1.48558914 0.00666183 3.00119019 0.01345825 C4.68270676 0.01368484 4.68270676 0.01368484 6.39819336 0.01391602 C7.61280243 0.02423859 8.8274115 0.03456116 10.0788269 0.04519653 C11.31897552 0.04802643 12.55912415 0.05085632 13.83685303 0.05377197 C17.13476073 0.06308729 20.43247413 0.08106014 23.73031616 0.10317993 C27.0951601 0.12363429 30.46003247 0.1327728 33.82492065 0.14285278 C40.42786163 0.16494385 47.03067212 0.19844421 53.6335144 0.24050903 C53.6335144 0.57050903 53.6335144 0.90050903 53.6335144 1.24050903 C52.62540207 1.2493084 52.62540207 1.2493084 51.59692383 1.25828552 C44.62169682 1.32206378 37.64693789 1.40644232 30.67208862 1.50296021 C28.06668252 1.5362795 25.46120302 1.5642893 22.85568237 1.58694458 C19.11724467 1.62036158 15.379484 1.67267149 11.6413269 1.72879028 C10.47046539 1.73518021 9.29960388 1.74157013 8.09326172 1.74815369 C6.4718074 1.77784492 6.4718074 1.77784492 4.81759644 1.80813599 C3.38530197 1.82479057 3.38530197 1.82479057 1.92407227 1.84178162 C0.79024612 2.03915169 0.79024612 2.03915169 -0.3664856 2.24050903 C-2.38998884 5.27576389 -2.68772577 6.43477105 -2.9914856 9.92800903 C-3.06625122 10.73625122 -3.14101685 11.54449341 -3.2180481 12.37722778 C-3.26703247 12.9921106 -3.31601685 13.60699341 -3.3664856 14.24050903 C-3.6964856 14.24050903 -4.0264856 14.24050903 -4.3664856 14.24050903 C-4.42037647 12.28247396 -4.45922777 10.32401994 -4.4914856 8.36550903 C-4.51468872 7.27496216 -4.53789185 6.18441528 -4.5617981 5.06082153 C-4.3136694 1.47784323 -3.64745964 0.3706961 0 0 Z " fill="#C2596D" transform="translate(530.3664855957031,538.7594909667969)"/>
<path d="M0 0 C-1.485 2.475 -1.485 2.475 -3 5 C2.61 5.33 8.22 5.66 14 6 C14 6.33 14 6.66 14 7 C5.09 7 -3.82 7 -13 7 C-5.52293578 -1.97247706 -5.52293578 -1.97247706 0 0 Z " fill="#C46375" transform="translate(370,789)"/>
<path d="M0 0 C7.59 0 15.18 0 23 0 C23 0.33 23 0.66 23 1 C20.69 1.33 18.38 1.66 16 2 C16 2.66 16 3.32 16 4 C18.31 4.33 20.62 4.66 23 5 C23 5.66 23 6.32 23 7 C23.66 7.33 24.32 7.66 25 8 C20.05 7.67 15.1 7.34 10 7 C10.33 5.02 10.66 3.04 11 1 C7.37 1 3.74 1 0 1 C0 0.67 0 0.34 0 0 Z " fill="#C56374" transform="translate(167,730)"/>
<path d="M0 0 C0.66 0 1.32 0 2 0 C2 4.95 2 9.9 2 15 C1.67 15 1.34 15 1 15 C0.67 12.69 0.34 10.38 0 8 C-0.763125 8.350625 -1.52625 8.70125 -2.3125 9.0625 C-5 10 -5 10 -8 9 C-8.33 9.66 -8.66 10.32 -9 11 C-10 10 -10 10 -10.09765625 8.15234375 C-10.06510417 6.1015625 -10.03255208 4.05078125 -10 2 C-7.525 2.495 -7.525 2.495 -5 3 C-4.67 4.65 -4.34 6.3 -4 8 C-3.67 7.01 -3.34 6.02 -3 5 C-2.01 5 -1.02 5 0 5 C0 3.35 0 1.7 0 0 Z " fill="#CC7987" transform="translate(377,752)"/>
<path d="M0 0 C4.29 0 8.58 0 13 0 C14 3 14 3 13 6 C15.31 6 17.62 6 20 6 C20 6.33 20 6.66 20 7 C12.74 7 5.48 7 -2 7 C-2 6.67 -2 6.34 -2 6 C-0.88625 5.896875 0.2275 5.79375 1.375 5.6875 C2.57125 5.460625 3.7675 5.23375 5 5 C5.66 4.01 6.32 3.02 7 2 C4.69 1.67 2.38 1.34 0 1 C0 0.67 0 0.34 0 0 Z " fill="#C46275" transform="translate(278,730)"/>
<path d="M0 0 C0.66 0 1.32 0 2 0 C2 3.3 2 6.6 2 10 C2.99 9.01 3.98 8.02 5 7 C7.1875 6.3125 7.1875 6.3125 9 6 C9.33 6.99 9.66 7.98 10 9 C7 11 7 11 4 11 C4.33 12.32 4.66 13.64 5 15 C4.01 14.67 3.02 14.34 2 14 C1.67 17.96 1.34 21.92 1 26 C0.67 26 0.34 26 0 26 C0 17.42 0 8.84 0 0 Z " fill="#C36273" transform="translate(431,489)"/>
<path d="M0 0 C0.33 0.66 0.66 1.32 1 2 C1.99 1.67 2.98 1.34 4 1 C3.56699236 7.81987029 2.09212176 12.91643021 -1 19 C-2.45839897 15.04294544 -1.67906093 11.30168612 -1.0625 7.25 C-0.96259766 6.55261719 -0.86269531 5.85523438 -0.75976562 5.13671875 C-0.51334127 3.42348274 -0.25759045 1.71159275 0 0 Z " fill="#C87180" transform="translate(430,441)"/>
<path d="M0 0 C3.3 0 6.6 0 10 0 C10.33 0.99 10.66 1.98 11 3 C11.99 2.67 12.98 2.34 14 2 C14 3.65 14 5.3 14 7 C10.36693069 7 9.02876356 5.92067933 6 4 C5.278125 3.649375 4.55625 3.29875 3.8125 2.9375 C2 2 2 2 0 0 Z " fill="#C86D7E" transform="translate(203,682)"/>
<path d="M0 0 C0.33 0 0.66 0 1 0 C1.36122881 1.31057393 1.71380311 2.62353624 2.0625 3.9375 C2.25972656 4.66839844 2.45695312 5.39929688 2.66015625 6.15234375 C2.77230469 6.76207031 2.88445312 7.37179687 3 8 C2.67 8.33 2.34 8.66 2 9 C1.84417697 10.34015221 1.74955858 11.68758903 1.68359375 13.03515625 C1.62075195 14.24848633 1.62075195 14.24848633 1.55664062 15.48632812 C1.51732422 16.33646484 1.47800781 17.18660156 1.4375 18.0625 C1.39431641 18.91650391 1.35113281 19.77050781 1.30664062 20.65039062 C1.20023298 22.76672037 1.09958269 24.88333813 1 27 C1.66 27.33 2.32 27.66 3 28 C2.34 28 1.68 28 1 28 C1 31.63 1 35.26 1 39 C0.67 39 0.34 39 0 39 C0 26.13 0 13.26 0 0 Z " fill="#C06072" transform="translate(254,682)"/>
<path d="M0 0 C1.65 0 3.3 0 5 0 C6.88372214 3.17596839 7.20001885 5.31969081 6.9765625 8.984375 C6.925 9.91894531 6.8734375 10.85351562 6.8203125 11.81640625 C6.75585938 12.78449219 6.69140625 13.75257813 6.625 14.75 C6.56828125 15.73355469 6.5115625 16.71710937 6.453125 17.73046875 C6.31192448 20.154411 6.16054205 22.57727459 6 25 C5.67 25 5.34 25 5 25 C4.96132813 23.04707031 4.96132813 23.04707031 4.921875 21.0546875 C4.86557299 19.32809244 4.80822613 17.60153124 4.75 15.875 C4.73582031 15.0190625 4.72164063 14.163125 4.70703125 13.28125 C4.48854178 7.60052378 3.62201471 4.41885794 0 0 Z " fill="#CA7986" transform="translate(368,674)"/>
<path d="M0 0 C0.33 0 0.66 0 1 0 C1 8.58 1 17.16 1 26 C0.67 26 0.34 26 0 26 C0 23.03 0 20.06 0 17 C-0.66 17 -1.32 17 -2 17 C-2 15.68 -2 14.36 -2 13 C-1.34 13 -0.68 13 0 13 C-0.185625 12.34 -0.37125 11.68 -0.5625 11 C-1.13027308 7.10669886 -0.59281707 3.88624521 0 0 Z " fill="#C26072" transform="translate(564,732)"/>
<path d="M0 0 C0.33 0 0.66 0 1 0 C1 8.25 1 16.5 1 25 C0.67 25 0.34 25 0 25 C-0.33 23.35 -0.66 21.7 -1 20 C-1.99 19.67 -2.98 19.34 -4 19 C-3.01 17.515 -3.01 17.515 -2 16 C-1.34 16 -0.68 16 0 16 C0 10.72 0 5.44 0 0 Z " fill="#C16274" transform="translate(564,684)"/>
<path d="M0 0 C0.33 0 0.66 0 1 0 C1 6.93 1 13.86 1 21 C0.67 21 0.34 21 0 21 C-0.33 16.38 -0.66 11.76 -1 7 C-2.65 7.66 -4.3 8.32 -6 9 C-5.02501855 7.4972763 -4.04490611 5.99788037 -3.0625 4.5 C-2.51722656 3.6646875 -1.97195313 2.829375 -1.41015625 1.96875 C-0.94480469 1.3190625 -0.47945313 0.669375 0 0 Z " fill="#C97A86" transform="translate(330,775)"/>
<path d="M0 0 C1.79275866 3.11910856 2.34290718 5.67682428 2.625 9.25 C2.69976562 10.14203125 2.77453125 11.0340625 2.8515625 11.953125 C2.90054687 12.62859375 2.94953125 13.3040625 3 14 C2.01 13.67 1.02 13.34 0 13 C-0.84454356 9.62182575 -1.10844919 7.32534757 0 4 C-0.66 3.67 -1.32 3.34 -2 3 C-1.34 2.01 -0.68 1.02 0 0 Z " fill="#C87483" transform="translate(419,398)"/>
<path d="M0 0 C1.32 0.66 2.64 1.32 4 2 C3.67 3.65 3.34 5.3 3 7 C2.01 6.67 1.02 6.34 0 6 C0 5.34 0 4.68 0 4 C-0.66 3.34 -1.32 2.68 -2 2 C-1.34 2 -0.68 2 0 2 C0 1.34 0 0.68 0 0 Z M-1 6 C-0.67 6.66 -0.34 7.32 0 8 C-1.65 8 -3.3 8 -5 8 C-3.68 7.34 -2.36 6.68 -1 6 Z " fill="#CB7483" transform="translate(544,622)"/>
<path d="M0 0 C3.23861303 1.44424635 5.61969163 3.25772247 8.25 5.625 C8.95640625 6.25664062 9.6628125 6.88828125 10.390625 7.5390625 C10.92171875 8.02117187 11.4528125 8.50328125 12 9 C11.01 9.495 11.01 9.495 10 10 C9.67 10.66 9.34 11.32 9 12 C7.68527053 10.37680325 6.37328338 8.751385 5.0625 7.125 C4.33160156 6.22007812 3.60070312 5.31515625 2.84765625 4.3828125 C1 2 1 2 0 0 Z " fill="#F4E4E3" transform="translate(397,295)"/>
<path d="M0 0 C2 3 2 3 1.609375 5.2265625 C1.32578125 6.01804687 1.0421875 6.80953125 0.75 7.625 C0.47671875 8.42164063 0.2034375 9.21828125 -0.078125 10.0390625 C-1 12 -1 12 -3 13 C-2.69240822 11.02006459 -2.3787932 9.04106401 -2.0625 7.0625 C-1.88847656 5.96035156 -1.71445312 4.85820312 -1.53515625 3.72265625 C-1 1 -1 1 0 0 Z " fill="#CB7D89" transform="translate(468,371)"/>
<path d="M0 0 C0.33 0.66 0.66 1.32 1 2 C1.66 2.33 2.32 2.66 3 3 C3 3.66 3 4.32 3 5 C2.34 5 1.68 5 1 5 C1 5.66 1 6.32 1 7 C1.99 6.67 2.98 6.34 4 6 C4.99 6.66 5.98 7.32 7 8 C4.03 8 1.06 8 -2 8 C-2 4.79604584 -1.25664978 2.90600261 0 0 Z " fill="#CB7383" transform="translate(817,787)"/>
<path d="M0 0 C0 0.99 0 1.98 0 3 C-2.64 3 -5.28 3 -8 3 C-7 1 -7 1 -4.5625 -0.1875 C-2 -1 -2 -1 0 0 Z " fill="#F2E1DF" transform="translate(651,625)"/>
<path d="M0 0 C0.66 0 1.32 0 2 0 C1.5359375 0.9590625 1.5359375 0.9590625 1.0625 1.9375 C-0.31935403 5.92049104 -0.6536543 9.81650849 -1 14 C-1.33 14 -1.66 14 -2 14 C-2.05389087 12.04196493 -2.09274217 10.08351091 -2.125 8.125 C-2.14820313 7.03445313 -2.17140625 5.94390625 -2.1953125 4.8203125 C-2 2 -2 2 0 0 Z " fill="#C36273" transform="translate(528,539)"/>
<path d="M0 0 C0.33 0.99 0.66 1.98 1 3 C1.66 3 2.32 3 3 3 C2.01 5.97 1.02 8.94 0 12 C-1.15866723 7.36533108 -0.70010994 4.66739961 0 0 Z " fill="#CB7E8A" transform="translate(429,448)"/>
<path d="M0 0 C2.475 0.495 2.475 0.495 5 1 C4.34 2.65 3.68 4.3 3 6 C1.5 4.6875 1.5 4.6875 0 3 C0 2.01 0 1.02 0 0 Z " fill="#C8707F" transform="translate(540,675)"/>
<path d="M0 0 C2.5 2.3125 2.5 2.3125 5 5 C5 5.99 5 6.98 5 8 C2 7 2 7 0 5 C-0.125 2.375 -0.125 2.375 0 0 Z " fill="#CA7784" transform="translate(432,427)"/>
<path d="M0 0 C2.64 0 5.28 0 8 0 C7.01 0.33 6.02 0.66 5 1 C5.33 1.99 5.66 2.98 6 4 C4.02 3.34 2.04 2.68 0 2 C0 1.34 0 0.68 0 0 Z " fill="#C76C7C" transform="translate(352,362)"/>
<path d="M0 0 C0.33 0 0.66 0 1 0 C1.12375 1.134375 1.2475 2.26875 1.375 3.4375 C1.58125 4.613125 1.7875 5.78875 2 7 C2.66 7.33 3.32 7.66 4 8 C2.68 8.99 1.36 9.98 0 11 C0 7.37 0 3.74 0 0 Z " fill="#CC7F8C" transform="translate(365,775)"/>
<path d="M0 0 C1.98 0.99 3.96 1.98 6 3 C6 3.33 6 3.66 6 4 C3.69 4 1.38 4 -1 4 C-0.67 2.68 -0.34 1.36 0 0 Z " fill="#F5E8E5" transform="translate(577,624)"/>
<path d="M0 0 C0.66 0.99 1.32 1.98 2 3 C1.67 3.99 1.34 4.98 1 6 C1.33 6.66 1.66 7.32 2 8 C1.01 8.33 0.02 8.66 -1 9 C-2.25541557 5.23375329 -1.37061958 3.62811066 0 0 Z " fill="#CB7786" transform="translate(504,326)"/>
</svg>
